<?xml version="1.0" encoding="utf-8"?>
<svg version="1.1" xmlns="http://www.w3.org/2000/svg" viewBox="-0.735577 -0.115 6.75115 0.86"><defs><marker id="secArrow-blue" markerWidth="3" markerHeight="4" refX="3" refY="2" orient="auto"><path d="M3,2 L0,4 L0,0 L3,2" fill="blue" style="stroke:none;fill-opacity:0.5"/></marker></defs><g><g><g><polygon points="0,-0 0.0825,1.01033e-17 0.165,2.02067e-17 0.2475,3.031e-17 0.33,4.04133e-17 0.4125,5.05167e-17 0.495,6.062e-17 0.5775,7.07234e-17 0.66,8.08267e-17 0.66,0.094 -1.15117e-17,0.094 " style="fill:#eee;stroke:darkgrey;stroke-width:0.005"/><polyline points="0,-0 0.0825,1.01033e-17 0.165,2.02067e-17 0.2475,3.031e-17 0.33,4.04133e-17 0.4125,5.05167e-17 0.495,6.062e-17 0.5775,7.07234e-17 0.66,8.08267e-17 " style="fill:#eee;stroke:black;stroke-width:0.010"/><polygon points="0.02,0.0188 0.02,0.0752 0.04,0.047 " style="fill:#ccc;stroke-width:0"/><text x="0.30649999999999999" y="0.070500000000000035" font-size="0.050000000000000003" style="fill:darkgrey">0</text></g><g><polygon points="0.66,8.08267e-17 0.7425,9.093e-17 0.825,1.01033e-16 0.9075,1.11137e-16 0.99,1.2124e-16 1.0725,1.31343e-16 1.155,1.41447e-16 1.2375,1.5155e-16 1.32,1.61653e-16 1.32,0.094 0.66,0.094 " style="fill:#eee;stroke:darkgrey;stroke-width:0.005"/><polyline points="0.66,8.08267e-17 0.7425,9.093e-17 0.825,1.01033e-16 0.9075,1.11137e-16 0.99,1.2124e-16 1.0725,1.31343e-16 1.155,1.41447e-16 1.2375,1.5155e-16 1.32,1.61653e-16 " style="fill:#eee;stroke:black;stroke-width:0.010"/><polygon points="0.68,0.0188 0.68,0.0752 0.7,0.047 " style="fill:#ccc;stroke-width:0"/><text x="0.96650000000000003" y="0.070500000000000118" font-size="0.050000000000000003" style="fill:darkgrey">1</text></g><g><polygon points="1.32,1.61653e-16 1.4025,1.71757e-16 1.485,1.8186e-16 1.5675,1.91963e-16 1.65,2.02067e-16 1.7325,2.1217e-16 1.815,2.22273e-16 1.8975,2.32377e-16 1.98,2.4248e-16 1.98,0.094 1.32,0.094 " style="fill:#eee;stroke:darkgrey;stroke-width:0.005"/><polyline points="1.32,1.61653e-16 1.4025,1.71757e-16 1.485,1.8186e-16 1.5675,1.91963e-16 1.65,2.02067e-16 1.7325,2.1217e-16 1.815,2.22273e-16 1.8975,2.32377e-16 1.98,2.4248e-16 " style="fill:#eee;stroke:black;stroke-width:0.010"/><polygon points="1.34,0.0188 1.34,0.0752 1.36,0.047 " style="fill:#ccc;stroke-width:0"/><text x="1.6265000000000001" y="0.070500000000000201" font-size="0.050000000000000003" style="fill:darkgrey">2</text></g><g><polygon points="1.98,2.4248e-16 2.0625,2.52583e-16 2.145,2.62687e-16 2.2275,2.7279e-16 2.31,2.82893e-16 2.3925,2.92997e-16 2.475,3.031e-16 2.5575,3.13203e-16 2.64,3.23307e-16 2.64,0.094 1.98,0.094 " style="fill:#eee;stroke:darkgrey;stroke-width:0.005"/><polyline points="1.98,2.4248e-16 2.0625,2.52583e-16 2.145,2.62687e-16 2.2275,2.7279e-16 2.31,2.82893e-16 2.3925,2.92997e-16 2.475,3.031e-16 2.5575,3.13203e-16 2.64,3.23307e-16 " style="fill:#eee;stroke:black;stroke-width:0.010"/><polygon points="2,0.0188 2,0.0752 2.02,0.047 " style="fill:#ccc;stroke-width:0"/><text x="2.2865000000000002" y="0.070500000000000285" font-size="0.050000000000000003" style="fill:darkgrey">3</text></g><g><polygon points="2.64,3.23307e-16 2.7225,3.3341e-16 2.805,3.43513e-16 2.8875,3.53617e-16 2.97,3.6372e-16 3.0525,3.73823e-16 3.135,3.83927e-16 3.2175,3.9403e-16 3.3,4.04133e-16 3.3,0.094 2.64,0.094 " style="fill:#eee;stroke:darkgrey;stroke-width:0.005"/><polyline points="2.64,3.23307e-16 2.7225,3.3341e-16 2.805,3.43513e-16 2.8875,3.53617e-16 2.97,3.6372e-16 3.0525,3.73823e-16 3.135,3.83927e-16 3.2175,3.9403e-16 3.3,4.04133e-16 " style="fill:#eee;stroke:black;stroke-width:0.010"/><polygon points="2.66,0.0188 2.66,0.0752 2.68,0.047 " style="fill:#ccc;stroke-width:0"/><text x="2.9465000000000003" y="0.070500000000000368" font-size="0.050000000000000003" style="fill:darkgrey">4</text></g><g><polygon points="3.3,4.04133e-16 3.3825,4.14237e-16 3.465,4.2434e-16 3.5475,4.34443e-16 3.63,4.44547e-16 3.7125,4.5465e-16 3.795,4.64753e-16 3.8775,4.74857e-16 3.96,4.8496e-16 3.96,0.094 3.3,0.094 " style="fill:#eee;stroke:darkgrey;stroke-width:0.005"/><polyline points="3.3,4.04133e-16 3.3825,4.14237e-16 3.465,4.2434e-16 3.5475,4.34443e-16 3.63,4.44547e-16 3.7125,4.5465e-16 3.795,4.64753e-16 3.8775,4.74857e-16 3.96,4.8496e-16 " style="fill:#eee;stroke:black;stroke-width:0.010"/><polygon points="3.32,0.0188 3.32,0.0752 3.34,0.047 " style="fill:#ccc;stroke-width:0"/><text x="3.6065000000000005" y="0.070500000000000451" font-size="0.050000000000000003" style="fill:darkgrey">5</text></g><g><polygon points="3.96,4.8496e-16 4.0425,4.95063e-16 4.125,5.05167e-16 4.2075,5.1527e-16 4.29,5.25373e-16 4.3725,5.35477e-16 4.455,5.4558e-16 4.5375,5.55683e-16 4.62,5.65787e-16 4.62,0.094 3.96,0.094 " style="fill:#eee;stroke:darkgrey;stroke-width:0.005"/><polyline points="3.96,4.8496e-16 4.0425,4.95063e-16 4.125,5.05167e-16 4.2075,5.1527e-16 4.29,5.25373e-16 4.3725,5.35477e-16 4.455,5.4558e-16 4.5375,5.55683e-16 4.62,5.65787e-16 " style="fill:#eee;stroke:black;stroke-width:0.010"/><polygon points="3.98,0.0188 3.98,0.0752 4,0.047 " style="fill:#ccc;stroke-width:0"/><text x="4.2664999999999997" y="0.070500000000000534" font-size="0.050000000000000003" style="fill:darkgrey">6</text></g><g><polygon points="4.62,5.65787e-16 4.7025,5.7589e-16 4.785,5.85993e-16 4.8675,5.96097e-16 4.95,6.062e-16 5.0325,6.16304e-16 5.115,6.26407e-16 5.1975,6.3651e-16 5.28,6.46614e-16 5.28,0.094 4.62,0.094 " style="fill:#eee;stroke:darkgrey;stroke-width:0.005"/><polyline points="4.62,5.65787e-16 4.7025,5.7589e-16 4.785,5.85993e-16 4.8675,5.96097e-16 4.95,6.062e-16 5.0325,6.16304e-16 5.115,6.26407e-16 5.1975,6.3651e-16 5.28,6.46614e-16 " style="fill:#eee;stroke:black;stroke-width:0.010"/><polygon points="4.64,0.0188 4.64,0.0752 4.66,0.047 " style="fill:#ccc;stroke-width:0"/><text x="4.9264999999999999" y="0.070500000000000604" font-size="0.050000000000000003" style="fill:darkgrey">7</text></g><g><polygon points="5.28,6.46614e-16 5.33633,6.53512e-16 5.39266,3.66468e-08 5.44899,4.17485e-05 5.50532,0.000445667 5.56162,0.00204461 5.61778,0.00636481 5.6733,0.0156938 5.72694,0.0326832 5.69097,0.119528 5.28,0.094 " style="fill:#eee;stroke:darkgrey;stroke-width:0.005"/><polyline points="5.28,6.46614e-16 5.33633,6.53512e-16 5.39266,3.66468e-08 5.44899,4.17485e-05 5.50532,0.000445667 5.56162,0.00204461 5.61778,0.00636481 5.6733,0.0156938 5.72694,0.0326832 " style="fill:#eee;stroke:black;stroke-width:0.010"/><polygon points="5.3,0.0188 5.3,0.0752 5.32,0.047 " style="fill:#ccc;stroke-width:0"/><text x="5.4811430891240249" y="0.07094080329175971" font-size="0.050000000000000003" style="fill:darkgrey">8</text></g><g><polygon points="5.72694,0.0326832 5.75405,0.0455047 5.77977,0.0609216 5.80386,0.0787854 5.82608,0.0989241 5.84621,0.121144 5.86408,0.14523 5.8795,0.170952 5.89232,0.198061 5.78748,0.241486 5.68351,0.137523 " style="fill:#eee;stroke:darkgrey;stroke-width:0.005"/><polyline points="5.72694,0.0326832 5.75405,0.0455047 5.77977,0.0609216 5.80386,0.0787854 5.82608,0.0989241 5.84621,0.121144 5.86408,0.14523 5.8795,0.170952 5.89232,0.198061 " style="fill:#eee;stroke:black;stroke-width:0.010"/><polygon points="5.73673,0.0613047 5.71068,0.124208 5.74218,0.10041 " style="fill:#ccc;stroke-width:0"/><text x="5.7575863435240917" y="0.16741365647590856" font-size="0.050000000000000003" style="fill:darkgrey">9</text></g><g><polygon points="5.89232,0.198061 5.90242,0.226296 5.90971,0.255385 5.91411,0.285048 5.91558,0.315 5.91411,0.344952 5.90971,0.374615 5.90242,0.403704 5.89232,0.431939 5.78748,0.388514 5.78748,0.241486 " style="fill:#eee;stroke:darkgrey;stroke-width:0.005"/><polyline points="5.89232,0.198061 5.90242,0.226296 5.90971,0.255385 5.91411,0.285048 5.91558,0.315 5.91411,0.344952 5.90971,0.374615 5.90242,0.403704 5.89232,0.431939 " style="fill:#eee;stroke:black;stroke-width:0.010"/><polygon points="5.879,0.225223 5.8161,0.251279 5.8552,0.256729 " style="fill:#ccc;stroke-width:0"/><text x="5.8304695614864386" y="0.34336930975000074" font-size="0.050000000000000003" style="fill:darkgrey">10</text></g><g><polygon points="5.89232,0.431939 5.8795,0.459048 5.86408,0.48477 5.84621,0.508856 5.82608,0.531076 5.80386,0.551215 5.77977,0.569078 5.75405,0.584495 5.72694,0.597317 5.68351,0.492477 5.78748,0.388514 " style="fill:#eee;stroke:darkgrey;stroke-width:0.005"/><polyline points="5.89232,0.431939 5.8795,0.459048 5.86408,0.48477 5.84621,0.508856 5.82608,0.531076 5.80386,0.551215 5.77977,0.569078 5.75405,0.584495 5.72694,0.597317 " style="fill:#eee;stroke:black;stroke-width:0.010"/><polygon points="5.8637,0.441732 5.80079,0.415676 5.82459,0.447182 " style="fill:#ccc;stroke-width:0"/><text x="5.7575863435240917" y="0.51932496302409292" font-size="0.050000000000000003" style="fill:darkgrey">11</text></g><g><polygon points="5.72694,0.597317 5.6733,0.614306 5.61778,0.623635 5.56162,0.627955 5.50532,0.629554 5.44899,0.629958 5.39266,0.63 5.33633,0.63 5.28,0.63 5.28,0.536 5.69097,0.510472 " style="fill:#eee;stroke:darkgrey;stroke-width:0.005"/><polyline points="5.72694,0.597317 5.6733,0.614306 5.61778,0.623635 5.56162,0.627955 5.50532,0.629554 5.44899,0.629958 5.39266,0.63 5.33633,0.63 5.28,0.63 " style="fill:#eee;stroke:black;stroke-width:0.010"/><polygon points="5.70127,0.587602 5.67968,0.535495 5.672,0.569202 " style="fill:#ccc;stroke-width:0"/><text x="5.481143089124024" y="0.60605919670824171" font-size="0.050000000000000003" style="fill:darkgrey">12</text></g><g><polygon points="5.28,0.63 5.1975,0.63 5.115,0.63 5.0325,0.63 4.95,0.63 4.8675,0.63 4.785,0.63 4.7025,0.63 4.62,0.63 4.62,0.536 5.28,0.536 " style="fill:#eee;stroke:darkgrey;stroke-width:0.005"/><polyline points="5.28,0.63 5.1975,0.63 5.115,0.63 5.0325,0.63 4.95,0.63 4.8675,0.63 4.785,0.63 4.7025,0.63 4.62,0.63 " style="fill:#eee;stroke:black;stroke-width:0.010"/><polygon points="5.26,0.6112 5.26,0.5548 5.24,0.583 " style="fill:#ccc;stroke-width:0"/><text x="4.9264999999999999" y="0.60650000000000093" font-size="0.050000000000000003" style="fill:darkgrey">13</text></g><g><polygon points="4.62,0.63 4.5375,0.63 4.455,0.63 4.3725,0.63 4.29,0.63 4.2075,0.63 4.125,0.63 4.0425,0.63 3.96,0.63 3.96,0.536 4.62,0.536 " style="fill:#eee;stroke:darkgrey;stroke-width:0.005"/><polyline points="4.62,0.63 4.5375,0.63 4.455,0.63 4.3725,0.63 4.29,0.63 4.2075,0.63 4.125,0.63 4.0425,0.63 3.96,0.63 " style="fill:#eee;stroke:black;stroke-width:0.010"/><polygon points="4.6,0.6112 4.6,0.5548 4.58,0.583 " style="fill:#ccc;stroke-width:0"/><text x="4.2664999999999997" y="0.60650000000000115" font-size="0.050000000000000003" style="fill:darkgrey">14</text></g><g><polygon points="3.96,0.63 3.8775,0.63 3.795,0.63 3.7125,0.63 3.63,0.63 3.5475,0.63 3.465,0.63 3.3825,0.63 3.3,0.63 3.3,0.536 3.96,0.536 " style="fill:#eee;stroke:darkgrey;stroke-width:0.005"/><polyline points="3.96,0.63 3.8775,0.63 3.795,0.63 3.7125,0.63 3.63,0.63 3.5475,0.63 3.465,0.63 3.3825,0.63 3.3,0.63 " style="fill:#eee;stroke:black;stroke-width:0.010"/><polygon points="3.94,0.6112 3.94,0.5548 3.92,0.583 " style="fill:#ccc;stroke-width:0"/><text x="3.6065" y="0.60650000000000137" font-size="0.050000000000000003" style="fill:darkgrey">15</text></g><g><polygon points="3.3,0.63 3.2175,0.63 3.135,0.63 3.0525,0.63 2.97,0.63 2.8875,0.63 2.805,0.63 2.7225,0.63 2.64,0.63 2.64,0.536 3.3,0.536 " style="fill:#eee;stroke:darkgrey;stroke-width:0.005"/><polyline points="3.3,0.63 3.2175,0.63 3.135,0.63 3.0525,0.63 2.97,0.63 2.8875,0.63 2.805,0.63 2.7225,0.63 2.64,0.63 " style="fill:#eee;stroke:black;stroke-width:0.010"/><polygon points="3.28,0.6112 3.28,0.5548 3.26,0.583 " style="fill:#ccc;stroke-width:0"/><text x="2.9464999999999999" y="0.6065000000000017" font-size="0.050000000000000003" style="fill:darkgrey">16</text></g><g><polygon points="2.64,0.63 2.5575,0.63 2.475,0.63 2.3925,0.63 2.31,0.63 2.2275,0.63 2.145,0.63 2.0625,0.63 1.98,0.63 1.98,0.536 2.64,0.536 " style="fill:#eee;stroke:darkgrey;stroke-width:0.005"/><polyline points="2.64,0.63 2.5575,0.63 2.475,0.63 2.3925,0.63 2.31,0.63 2.2275,0.63 2.145,0.63 2.0625,0.63 1.98,0.63 " style="fill:#eee;stroke:black;stroke-width:0.010"/><polygon points="2.62,0.6112 2.62,0.5548 2.6,0.583 " style="fill:#ccc;stroke-width:0"/><text x="2.2864999999999998" y="0.60650000000000193" font-size="0.050000000000000003" style="fill:darkgrey">17</text></g><g><polygon points="1.98,0.63 1.8975,0.63 1.815,0.63 1.7325,0.63 1.65,0.63 1.5675,0.63 1.485,0.63 1.4025,0.63 1.32,0.63 1.32,0.536 1.98,0.536 " style="fill:#eee;stroke:darkgrey;stroke-width:0.005"/><polyline points="1.98,0.63 1.8975,0.63 1.815,0.63 1.7325,0.63 1.65,0.63 1.5675,0.63 1.485,0.63 1.4025,0.63 1.32,0.63 " style="fill:#eee;stroke:black;stroke-width:0.010"/><polygon points="1.96,0.6112 1.96,0.5548 1.94,0.583 " style="fill:#ccc;stroke-width:0"/><text x="1.6264999999999994" y="0.60650000000000215" font-size="0.050000000000000003" style="fill:darkgrey">18</text></g><g><polygon points="1.32,0.63 1.2375,0.63 1.155,0.63 1.0725,0.63 0.99,0.63 0.9075,0.63 0.825,0.63 0.7425,0.63 0.66,0.63 0.66,0.536 1.32,0.536 " style="fill:#eee;stroke:darkgrey;stroke-width:0.005"/><polyline points="1.32,0.63 1.2375,0.63 1.155,0.63 1.0725,0.63 0.99,0.63 0.9075,0.63 0.825,0.63 0.7425,0.63 0.66,0.63 " style="fill:#eee;stroke:black;stroke-width:0.010"/><polygon points="1.3,0.6112 1.3,0.5548 1.28,0.583 " style="fill:#ccc;stroke-width:0"/><text x="0.96649999999999936" y="0.60650000000000237" font-size="0.050000000000000003" style="fill:darkgrey">19</text></g><g><polygon points="0.66,0.63 0.5775,0.63 0.495,0.63 0.4125,0.63 0.33,0.63 0.2475,0.63 0.165,0.63 0.0825,0.63 -9.99201e-16,0.63 -1.02943e-15,0.536 0.66,0.536 " style="fill:#eee;stroke:darkgrey;stroke-width:0.005"/><polyline points="0.66,0.63 0.5775,0.63 0.495,0.63 0.4125,0.63 0.33,0.63 0.2475,0.63 0.165,0.63 0.0825,0.63 -9.99201e-16,0.63 " style="fill:#eee;stroke:black;stroke-width:0.010"/><polygon points="0.64,0.6112 0.64,0.5548 0.62,0.583 " style="fill:#ccc;stroke-width:0"/><text x="0.30649999999999905" y="0.6065000000000027" font-size="0.050000000000000003" style="fill:darkgrey">20</text></g><g><polygon points="-9.65331e-16,0.63 -0.0563303,0.63 -0.112661,0.63 -0.168991,0.629958 -0.225319,0.629554 -0.281624,0.627955 -0.337778,0.623635 -0.393297,0.614306 -0.446939,0.597317 -0.410967,0.510472 -9.95564e-16,0.536 " style="fill:#eee;stroke:darkgrey;stroke-width:0.005"/><polyline points="-9.65331e-16,0.63 -0.0563303,0.63 -0.112661,0.63 -0.168991,0.629958 -0.225319,0.629554 -0.281624,0.627955 -0.337778,0.623635 -0.393297,0.614306 -0.446939,0.597317 " style="fill:#eee;stroke:black;stroke-width:0.010"/><polygon points="-0.02,0.6112 -0.02,0.5548 -0.04,0.583 " style="fill:#ccc;stroke-width:0"/><text x="-0.24814308912402586" y="0.60605919670824382" font-size="0.050000000000000003" style="fill:darkgrey">21</text></g><g><polygon points="-0.446939,0.597317 -0.474048,0.584495 -0.49977,0.569078 -0.523856,0.551215 -0.546076,0.531076 -0.566215,0.508856 -0.584078,0.48477 -0.599495,0.459048 -0.612317,0.431939 -0.507477,0.388514 -0.403514,0.492477 " style="fill:#eee;stroke:darkgrey;stroke-width:0.005"/><polyline points="-0.446939,0.597317 -0.474048,0.584495 -0.49977,0.569078 -0.523856,0.551215 -0.546076,0.531076 -0.566215,0.508856 -0.584078,0.48477 -0.599495,0.459048 -0.612317,0.431939 " style="fill:#eee;stroke:black;stroke-width:0.010"/><polygon points="-0.456732,0.568695 -0.430676,0.505792 -0.462182,0.52959 " style="fill:#ccc;stroke-width:0"/><text x="-0.53432496302409338" y="0.51932496302409525" font-size="0.050000000000000003" style="fill:darkgrey">22</text></g><g><polygon points="-0.612317,0.431939 -0.622419,0.403704 -0.629706,0.374615 -0.634106,0.344952 -0.635577,0.315 -0.634106,0.285048 -0.629706,0.255385 -0.622419,0.226296 -0.612317,0.198061 -0.507477,0.241486 -0.507477,0.388514 " style="fill:#eee;stroke:darkgrey;stroke-width:0.005"/><polyline points="-0.612317,0.431939 -0.622419,0.403704 -0.629706,0.374615 -0.634106,0.344952 -0.635577,0.315 -0.634106,0.285048 -0.629706,0.255385 -0.622419,0.226296 -0.612317,0.198061 " style="fill:#eee;stroke:black;stroke-width:0.010"/><polygon points="-0.599003,0.404777 -0.536099,0.378721 -0.575204,0.373271 " style="fill:#ccc;stroke-width:0"/><text x="-0.60720818098644014" y="0.3433693097500029" font-size="0.050000000000000003" style="fill:darkgrey">23</text></g><g><polygon points="-0.612317,0.198061 -0.599495,0.170952 -0.584078,0.14523 -0.566215,0.121144 -0.546076,0.0989241 -0.523856,0.0787854 -0.49977,0.0609216 -0.474048,0.0455047 -0.446939,0.0326832 -0.403514,0.137523 -0.507477,0.241486 " style="fill:#eee;stroke:darkgrey;stroke-width:0.005"/><polyline points="-0.612317,0.198061 -0.599495,0.170952 -0.584078,0.14523 -0.566215,0.121144 -0.546076,0.0989241 -0.523856,0.0787854 -0.49977,0.0609216 -0.474048,0.0455047 -0.446939,0.0326832 " style="fill:#eee;stroke:black;stroke-width:0.010"/><polygon points="-0.583695,0.188268 -0.520792,0.214324 -0.54459,0.182818 " style="fill:#ccc;stroke-width:0"/><text x="-0.53432496302409349" y="0.16741365647591064" font-size="0.050000000000000003" style="fill:darkgrey">24</text></g><g><polygon points="-0.446939,0.0326832 -0.393297,0.0156938 -0.337778,0.00636481 -0.281624,0.00204461 -0.225319,0.000445667 -0.168991,4.17485e-05 -0.112661,3.66468e-08 -0.0563303,2.42861e-15 -1.33227e-15,2.38698e-15 -1.254e-15,0.094 -0.410967,0.119528 " style="fill:#eee;stroke:darkgrey;stroke-width:0.005"/><polyline points="-0.446939,0.0326832 -0.393297,0.0156938 -0.337778,0.00636481 -0.281624,0.00204461 -0.225319,0.000445667 -0.168991,4.17485e-05 -0.112661,3.66468e-08 -0.0563303,2.42861e-15 -1.33227e-15,2.38698e-15 " style="fill:#eee;stroke:black;stroke-width:0.010"/><polygon points="-0.421267,0.0423985 -0.399684,0.0945053 -0.391998,0.0607982 " style="fill:#ccc;stroke-width:0"/><text x="-0.24814308912402616" y="0.070940803291761639" font-size="0.050000000000000003" style="fill:darkgrey">25</text></g></g><g><g><polyline points="1.83697e-18,-0.015 0.0253846,-0.015 0.0507692,-0.015 0.0761538,-0.015 0.101538,-0.015 0.126923,-0.015 0.152308,-0.015 0.177692,-0.015 0.203077,-0.015 0.228462,-0.015 0.253846,-0.015 0.279231,-0.015 0.304615,-0.015 0.33,-0.015 0.355385,-0.015 0.380769,-0.015 0.406154,-0.015 0.431538,-0.015 0.456923,-0.015 0.482308,-0.015 0.507692,-0.015 0.533077,-0.015 0.558462,-0.015 0.583846,-0.015 0.609231,-0.015 0.634615,-0.015 0.66,-0.015 " stroke-width="0.0050000000000000001" style="stroke:pink;fill:none"/><rect x="-0.0050000000000006714" y="-0.01999999999999881" width="0.01" height="0.01" style="fill:red;stroke-width:0"/><rect x="0.65500000000000003" y="-0.019999999999999917" width="0.01" height="0.01" style="fill:red;stroke-width:0"/></g><g><polyline points="0.66,-0.015 0.685385,-0.015 0.710769,-0.015 0.736154,-0.015 0.761538,-0.015 0.786923,-0.015 0.812308,-0.015 0.837692,-0.015 0.863077,-0.015 0.888462,-0.015 0.913846,-0.015 0.939231,-0.015 0.964615,-0.015 0.99,-0.015 1.01538,-0.015 1.04077,-0.015 1.06615,-0.015 1.09154,-0.015 1.11692,-0.015 1.14231,-0.015 1.16769,-0.015 1.19308,-0.015 1.21846,-0.015 1.24385,-0.015 1.26923,-0.015 1.29462,-0.015 1.32,-0.015 " stroke-width="0.0050000000000000001" style="stroke:pink;fill:none"/><rect x="0.65500000000000003" y="-0.019999999999999917" width="0.01" height="0.01" style="fill:red;stroke-width:0"/><rect x="1.3150000000000002" y="-0.019999999999999837" width="0.01" height="0.01" style="fill:red;stroke-width:0"/></g><g><polyline points="1.32,-0.015 1.34538,-0.015 1.37077,-0.015 1.39615,-0.015 1.42154,-0.015 1.44692,-0.015 1.47231,-0.015 1.49769,-0.015 1.52308,-0.015 1.54846,-0.015 1.57385,-0.015 1.59923,-0.015 1.62462,-0.015 1.65,-0.015 1.67538,-0.015 1.70077,-0.015 1.72615,-0.015 1.75154,-0.015 1.77692,-0.015 1.80231,-0.015 1.82769,-0.015 1.85308,-0.015 1.87846,-0.015 1.90385,-0.015 1.92923,-0.015 1.95462,-0.015 1.98,-0.015 " stroke-width="0.0050000000000000001" style="stroke:pink;fill:none"/><rect x="1.3150000000000002" y="-0.019999999999999837" width="0.01" height="0.01" style="fill:red;stroke-width:0"/><rect x="1.9750000000000001" y="-0.019999999999999758" width="0.01" height="0.01" style="fill:red;stroke-width:0"/></g><g><polyline points="1.98,-0.015 2.00538,-0.015 2.03077,-0.015 2.05615,-0.015 2.08154,-0.015 2.10692,-0.015 2.13231,-0.015 2.15769,-0.015 2.18308,-0.015 2.20846,-0.015 2.23385,-0.015 2.25923,-0.015 2.28462,-0.015 2.31,-0.015 2.33538,-0.015 2.36077,-0.015 2.38615,-0.015 2.41154,-0.015 2.43692,-0.015 2.46231,-0.015 2.48769,-0.015 2.51308,-0.015 2.53846,-0.015 2.56385,-0.015 2.58923,-0.015 2.61462,-0.015 2.64,-0.015 " stroke-width="0.0050000000000000001" style="stroke:pink;fill:none"/><rect x="1.9750000000000001" y="-0.019999999999999758" width="0.01" height="0.01" style="fill:red;stroke-width:0"/><rect x="2.6350000000000002" y="-0.019999999999999678" width="0.01" height="0.01" style="fill:red;stroke-width:0"/></g><g><polyline points="2.64,-0.015 2.66538,-0.015 2.69077,-0.015 2.71615,-0.015 2.74154,-0.015 2.76692,-0.015 2.79231,-0.015 2.81769,-0.015 2.84308,-0.015 2.86846,-0.015 2.89385,-0.015 2.91923,-0.015 2.94462,-0.015 2.97,-0.015 2.99538,-0.015 3.02077,-0.015 3.04615,-0.015 3.07154,-0.015 3.09692,-0.015 3.12231,-0.015 3.14769,-0.015 3.17308,-0.015 3.19846,-0.015 3.22385,-0.015 3.24923,-0.015 3.27462,-0.015 3.3,-0.015 " stroke-width="0.0050000000000000001" style="stroke:pink;fill:none"/><rect x="2.6350000000000002" y="-0.019999999999999678" width="0.01" height="0.01" style="fill:red;stroke-width:0"/><rect x="3.2950000000000004" y="-0.019999999999999594" width="0.01" height="0.01" style="fill:red;stroke-width:0"/></g><g><polyline points="3.3,-0.015 3.32538,-0.015 3.35077,-0.015 3.37615,-0.015 3.40154,-0.015 3.42692,-0.015 3.45231,-0.015 3.47769,-0.015 3.50308,-0.015 3.52846,-0.015 3.55385,-0.015 3.57923,-0.015 3.60462,-0.015 3.63,-0.015 3.65538,-0.015 3.68077,-0.015 3.70615,-0.015 3.73154,-0.015 3.75692,-0.015 3.78231,-0.015 3.80769,-0.015 3.83308,-0.015 3.85846,-0.015 3.88385,-0.015 3.90923,-0.015 3.93462,-0.015 3.96,-0.015 " stroke-width="0.0050000000000000001" style="stroke:pink;fill:none"/><rect x="3.2950000000000004" y="-0.019999999999999594" width="0.01" height="0.01" style="fill:red;stroke-width:0"/><rect x="3.9550000000000005" y="-0.019999999999999515" width="0.01" height="0.01" style="fill:red;stroke-width:0"/></g><g><polyline points="3.96,-0.015 3.98538,-0.015 4.01077,-0.015 4.03615,-0.015 4.06154,-0.015 4.08692,-0.015 4.11231,-0.015 4.13769,-0.015 4.16308,-0.015 4.18846,-0.015 4.21385,-0.015 4.23923,-0.015 4.26462,-0.015 4.29,-0.015 4.31538,-0.015 4.34077,-0.015 4.36615,-0.015 4.39154,-0.015 4.41692,-0.015 4.44231,-0.015 4.46769,-0.015 4.49308,-0.015 4.51846,-0.015 4.54385,-0.015 4.56923,-0.015 4.59462,-0.015 4.62,-0.015 " stroke-width="0.0050000000000000001" style="stroke:pink;fill:none"/><rect x="3.9550000000000005" y="-0.019999999999999515" width="0.01" height="0.01" style="fill:red;stroke-width:0"/><rect x="4.6150000000000002" y="-0.019999999999999435" width="0.01" height="0.01" style="fill:red;stroke-width:0"/></g><g><polyline points="4.62,-0.015 4.64538,-0.015 4.67077,-0.015 4.69615,-0.015 4.72154,-0.015 4.74692,-0.015 4.77231,-0.015 4.79769,-0.015 4.82308,-0.015 4.84846,-0.015 4.87385,-0.015 4.89923,-0.015 4.92462,-0.015 4.95,-0.015 4.97538,-0.015 5.00077,-0.015 5.02615,-0.015 5.05154,-0.015 5.07692,-0.015 5.10231,-0.015 5.12769,-0.015 5.15308,-0.015 5.17846,-0.015 5.20385,-0.015 5.22923,-0.015 5.25462,-0.015 5.28,-0.015 " stroke-width="0.0050000000000000001" style="stroke:pink;fill:none"/><rect x="4.6150000000000002" y="-0.019999999999999435" width="0.01" height="0.01" style="fill:red;stroke-width:0"/><rect x="5.2750000000000004" y="-0.019999999999999352" width="0.01" height="0.01" style="fill:red;stroke-width:0"/></g><g><polyline points="5.28,-0.015 5.30625,-0.015 5.3325,-0.015 5.35875,-0.015 5.385,-0.015 " stroke-width="0.0050000000000000001" style="stroke:pink;fill:none"/><rect x="5.2750000000000004" y="-0.019999999999999352" width="0.01" height="0.01" style="fill:red;stroke-width:0"/><rect x="5.3800000000000008" y="-0.019999999999999341" width="0.01" height="0.01" style="fill:red;stroke-width:0"/></g><g><polyline points="5.385,-0.015 5.41159,-0.014998 5.4382,-0.0149785 5.46483,-0.0149062 5.4915,-0.0147224 5.51823,-0.0143393 5.54502,-0.0136353 5.5719,-0.0124499 5.59887,-0.0105791 5.6259,-0.0077732 5.65293,-0.00374117 5.67988,0.00183544 5.70654,0.00927084 5.73268,0.018825 " stroke-width="0.0050000000000000001" style="stroke:pink;fill:none"/><rect x="5.3800000000000008" y="-0.019999999999999341" width="0.01" height="0.01" style="fill:red;stroke-width:0"/><rect x="5.7276796944940083" y="0.013825017724778066" width="0.01" height="0.01" style="fill:red;stroke-width:0"/></g><g><polyline points="5.73268,0.018825 5.75803,0.0306443 5.78225,0.0446277 5.80516,0.0606688 5.82658,0.0786455 5.84635,0.098421 5.86433,0.119845 5.88037,0.142754 5.89436,0.166974 5.90617,0.19232 " stroke-width="0.0050000000000000001" style="stroke:pink;fill:none"/><rect x="5.7276796944940083" y="0.013825017724778066" width="0.01" height="0.01" style="fill:red;stroke-width:0"/><rect x="5.9011749822752231" y="0.18732030550599243" width="0.01" height="0.01" style="fill:red;stroke-width:0"/></g><g><polyline points="5.90617,0.19232 5.91574,0.2186 5.92298,0.245614 5.92783,0.273156 5.93027,0.301017 5.93027,0.328983 5.92783,0.356844 5.92298,0.384386 5.91574,0.4114 5.90617,0.43768 " stroke-width="0.0050000000000000001" style="stroke:pink;fill:none"/><rect x="5.9011749822752231" y="0.18732030550599243" width="0.01" height="0.01" style="fill:red;stroke-width:0"/><rect x="5.9011749822752231" y="0.43267969449400895" width="0.01" height="0.01" style="fill:red;stroke-width:0"/></g><g><polyline points="5.90617,0.43768 5.89436,0.463026 5.88037,0.487246 5.86433,0.510155 5.84635,0.531579 5.82658,0.551355 5.80516,0.569331 5.78225,0.585372 5.75803,0.599356 5.73268,0.611175 " stroke-width="0.0050000000000000001" style="stroke:pink;fill:none"/><rect x="5.9011749822752231" y="0.43267969449400895" width="0.01" height="0.01" style="fill:red;stroke-width:0"/><rect x="5.7276796944940083" y="0.60617498227522337" width="0.01" height="0.01" style="fill:red;stroke-width:0"/></g><g><polyline points="5.73268,0.611175 5.70654,0.620729 5.67988,0.628165 5.65293,0.633741 5.6259,0.637773 5.59887,0.640579 5.5719,0.64245 5.54502,0.643635 5.51823,0.644339 5.4915,0.644722 5.46483,0.644906 5.4382,0.644978 5.41159,0.644998 5.385,0.645 " stroke-width="0.0050000000000000001" style="stroke:pink;fill:none"/><rect x="5.7276796944940083" y="0.60617498227522337" width="0.01" height="0.01" style="fill:red;stroke-width:0"/><rect x="5.3799999999999999" y="0.6400000000000009" width="0.01" height="0.01" style="fill:red;stroke-width:0"/></g><g><polyline points="5.385,0.645 5.35875,0.645 5.3325,0.645 5.30625,0.645 5.28,0.645 " stroke-width="0.0050000000000000001" style="stroke:pink;fill:none"/><rect x="5.3799999999999999" y="0.6400000000000009" width="0.01" height="0.01" style="fill:red;stroke-width:0"/><rect x="5.2750000000000004" y="0.6400000000000009" width="0.01" height="0.01" style="fill:red;stroke-width:0"/></g><g><polyline points="5.28,0.645 5.25462,0.645 5.22923,0.645 5.20385,0.645 5.17846,0.645 5.15308,0.645 5.12769,0.645 5.10231,0.645 5.07692,0.645 5.05154,0.645 5.02615,0.645 5.00077,0.645 4.97538,0.645 4.95,0.645 4.92462,0.645 4.89923,0.645 4.87385,0.645 4.84846,0.645 4.82308,0.645 4.79769,0.645 4.77231,0.645 4.74692,0.645 4.72154,0.645 4.69615,0.645 4.67077,0.645 4.64538,0.645 4.62,0.645 " stroke-width="0.0050000000000000001" style="stroke:pink;fill:none"/><rect x="5.2750000000000004" y="0.6400000000000009" width="0.01" height="0.01" style="fill:red;stroke-width:0"/><rect x="4.6150000000000002" y="0.64000000000000112" width="0.01" height="0.01" style="fill:red;stroke-width:0"/></g><g><polyline points="4.62,0.645 4.59462,0.645 4.56923,0.645 4.54385,0.645 4.51846,0.645 4.49308,0.645 4.46769,0.645 4.44231,0.645 4.41692,0.645 4.39154,0.645 4.36615,0.645 4.34077,0.645 4.31538,0.645 4.29,0.645 4.26462,0.645 4.23923,0.645 4.21385,0.645 4.18846,0.645 4.16308,0.645 4.13769,0.645 4.11231,0.645 4.08692,0.645 4.06154,0.645 4.03615,0.645 4.01077,0.645 3.98538,0.645 3.96,0.645 " stroke-width="0.0050000000000000001" style="stroke:pink;fill:none"/><rect x="4.6150000000000002" y="0.64000000000000112" width="0.01" height="0.01" style="fill:red;stroke-width:0"/><rect x="3.9550000000000001" y="0.64000000000000135" width="0.01" height="0.01" style="fill:red;stroke-width:0"/></g><g><polyline points="3.96,0.645 3.93462,0.645 3.90923,0.645 3.88385,0.645 3.85846,0.645 3.83308,0.645 3.80769,0.645 3.78231,0.645 3.75692,0.645 3.73154,0.645 3.70615,0.645 3.68077,0.645 3.65538,0.645 3.63,0.645 3.60462,0.645 3.57923,0.645 3.55385,0.645 3.52846,0.645 3.50308,0.645 3.47769,0.645 3.45231,0.645 3.42692,0.645 3.40154,0.645 3.37615,0.645 3.35077,0.645 3.32538,0.645 3.3,0.645 " stroke-width="0.0050000000000000001" style="stroke:pink;fill:none"/><rect x="3.9550000000000001" y="0.64000000000000135" width="0.01" height="0.01" style="fill:red;stroke-width:0"/><rect x="3.2949999999999999" y="0.64000000000000157" width="0.01" height="0.01" style="fill:red;stroke-width:0"/></g><g><polyline points="3.3,0.645 3.27462,0.645 3.24923,0.645 3.22385,0.645 3.19846,0.645 3.17308,0.645 3.14769,0.645 3.12231,0.645 3.09692,0.645 3.07154,0.645 3.04615,0.645 3.02077,0.645 2.99538,0.645 2.97,0.645 2.94462,0.645 2.91923,0.645 2.89385,0.645 2.86846,0.645 2.84308,0.645 2.81769,0.645 2.79231,0.645 2.76692,0.645 2.74154,0.645 2.71615,0.645 2.69077,0.645 2.66538,0.645 2.64,0.645 " stroke-width="0.0050000000000000001" style="stroke:pink;fill:none"/><rect x="3.2949999999999999" y="0.64000000000000157" width="0.01" height="0.01" style="fill:red;stroke-width:0"/><rect x="2.6349999999999998" y="0.6400000000000019" width="0.01" height="0.01" style="fill:red;stroke-width:0"/></g><g><polyline points="2.64,0.645 2.61462,0.645 2.58923,0.645 2.56385,0.645 2.53846,0.645 2.51308,0.645 2.48769,0.645 2.46231,0.645 2.43692,0.645 2.41154,0.645 2.38615,0.645 2.36077,0.645 2.33538,0.645 2.31,0.645 2.28462,0.645 2.25923,0.645 2.23385,0.645 2.20846,0.645 2.18308,0.645 2.15769,0.645 2.13231,0.645 2.10692,0.645 2.08154,0.645 2.05615,0.645 2.03077,0.645 2.00538,0.645 1.98,0.645 " stroke-width="0.0050000000000000001" style="stroke:pink;fill:none"/><rect x="2.6349999999999998" y="0.6400000000000019" width="0.01" height="0.01" style="fill:red;stroke-width:0"/><rect x="1.9749999999999996" y="0.64000000000000212" width="0.01" height="0.01" style="fill:red;stroke-width:0"/></g><g><polyline points="1.98,0.645 1.95462,0.645 1.92923,0.645 1.90385,0.645 1.87846,0.645 1.85308,0.645 1.82769,0.645 1.80231,0.645 1.77692,0.645 1.75154,0.645 1.72615,0.645 1.70077,0.645 1.67538,0.645 1.65,0.645 1.62462,0.645 1.59923,0.645 1.57385,0.645 1.54846,0.645 1.52308,0.645 1.49769,0.645 1.47231,0.645 1.44692,0.645 1.42154,0.645 1.39615,0.645 1.37077,0.645 1.34538,0.645 1.32,0.645 " stroke-width="0.0050000000000000001" style="stroke:pink;fill:none"/><rect x="1.9749999999999996" y="0.64000000000000212" width="0.01" height="0.01" style="fill:red;stroke-width:0"/><rect x="1.3149999999999995" y="0.64000000000000234" width="0.01" height="0.01" style="fill:red;stroke-width:0"/></g><g><polyline points="1.32,0.645 1.29462,0.645 1.26923,0.645 1.24385,0.645 1.21846,0.645 1.19308,0.645 1.16769,0.645 1.14231,0.645 1.11692,0.645 1.09154,0.645 1.06615,0.645 1.04077,0.645 1.01538,0.645 0.99,0.645 0.964615,0.645 0.939231,0.645 0.913846,0.645 0.888462,0.645 0.863077,0.645 0.837692,0.645 0.812308,0.645 0.786923,0.645 0.761538,0.645 0.736154,0.645 0.710769,0.645 0.685385,0.645 0.66,0.645 " stroke-width="0.0050000000000000001" style="stroke:pink;fill:none"/><rect x="1.3149999999999995" y="0.64000000000000234" width="0.01" height="0.01" style="fill:red;stroke-width:0"/><rect x="0.65499999999999925" y="0.64000000000000268" width="0.01" height="0.01" style="fill:red;stroke-width:0"/></g><g><polyline points="0.66,0.645 0.634615,0.645 0.609231,0.645 0.583846,0.645 0.558462,0.645 0.533077,0.645 0.507692,0.645 0.482308,0.645 0.456923,0.645 0.431538,0.645 0.406154,0.645 0.380769,0.645 0.355385,0.645 0.33,0.645 0.304615,0.645 0.279231,0.645 0.253846,0.645 0.228462,0.645 0.203077,0.645 0.177692,0.645 0.152308,0.645 0.126923,0.645 0.101538,0.645 0.0761538,0.645 0.0507692,0.645 0.0253846,0.645 -9.94376e-16,0.645 " stroke-width="0.0050000000000000001" style="stroke:pink;fill:none"/><rect x="0.65499999999999925" y="0.64000000000000268" width="0.01" height="0.01" style="fill:red;stroke-width:0"/><rect x="-0.0050000000000009776" y="0.6400000000000029" width="0.01" height="0.01" style="fill:red;stroke-width:0"/></g><g><polyline points="-9.60507e-16,0.645 -0.02625,0.645 -0.0525,0.645 -0.07875,0.645 -0.105,0.645 " stroke-width="0.0050000000000000001" style="stroke:pink;fill:none"/><rect x="-0.0050000000000009776" y="0.6400000000000029" width="0.01" height="0.01" style="fill:red;stroke-width:0"/><rect x="-0.110000000000001" y="0.6400000000000029" width="0.01" height="0.01" style="fill:red;stroke-width:0"/></g><g><polyline points="-0.105,0.645 -0.131592,0.644998 -0.158197,0.644978 -0.184829,0.644906 -0.2115,0.644722 -0.238227,0.644339 -0.265025,0.643635 -0.291905,0.64245 -0.318868,0.640579 -0.345896,0.637773 -0.372934,0.633741 -0.399876,0.628165 -0.426543,0.620729 -0.45268,0.611175 " stroke-width="0.0050000000000000001" style="stroke:pink;fill:none"/><rect x="-0.110000000000001" y="0.6400000000000029" width="0.01" height="0.01" style="fill:red;stroke-width:0"/><rect x="-0.45767969449400936" y="0.6061749822752257" width="0.01" height="0.01" style="fill:red;stroke-width:0"/></g><g><polyline points="-0.45268,0.611175 -0.478026,0.599356 -0.502246,0.585372 -0.525155,0.569331 -0.546579,0.551355 -0.566355,0.531579 -0.584331,0.510155 -0.600372,0.487246 -0.614356,0.463026 -0.626175,0.43768 " stroke-width="0.0050000000000000001" style="stroke:pink;fill:none"/><rect x="-0.45767969449400936" y="0.6061749822752257" width="0.01" height="0.01" style="fill:red;stroke-width:0"/><rect x="-0.63117498227522384" y="0.43267969449401134" width="0.01" height="0.01" style="fill:red;stroke-width:0"/></g><g><polyline points="-0.626175,0.43768 -0.63574,0.4114 -0.642979,0.384386 -0.647835,0.356844 -0.650272,0.328983 -0.650272,0.301017 -0.647835,0.273156 -0.642979,0.245614 -0.63574,0.2186 -0.626175,0.19232 " stroke-width="0.0050000000000000001" style="stroke:pink;fill:none"/><rect x="-0.63117498227522384" y="0.43267969449401134" width="0.01" height="0.01" style="fill:red;stroke-width:0"/><rect x="-0.63117498227522406" y="0.18732030550599471" width="0.01" height="0.01" style="fill:red;stroke-width:0"/></g><g><polyline points="-0.626175,0.19232 -0.614356,0.166974 -0.600372,0.142754 -0.584331,0.119845 -0.566355,0.098421 -0.546579,0.0786455 -0.525155,0.0606688 -0.502246,0.0446277 -0.478026,0.0306443 -0.45268,0.018825 " stroke-width="0.0050000000000000001" style="stroke:pink;fill:none"/><rect x="-0.63117498227522406" y="0.18732030550599471" width="0.01" height="0.01" style="fill:red;stroke-width:0"/><rect x="-0.45767969449400969" y="0.013825017724780137" width="0.01" height="0.01" style="fill:red;stroke-width:0"/></g><g><polyline points="-0.45268,0.018825 -0.426543,0.00927084 -0.399876,0.00183544 -0.372934,-0.00374117 -0.345896,-0.0077732 -0.318868,-0.0105791 -0.291905,-0.0124499 -0.265025,-0.0136353 -0.238227,-0.0143393 -0.2115,-0.0147224 -0.184829,-0.0149062 -0.158197,-0.0149785 -0.131592,-0.014998 -0.105,-0.015 " stroke-width="0.0050000000000000001" style="stroke:pink;fill:none"/><rect x="-0.45767969449400969" y="0.013825017724780137" width="0.01" height="0.01" style="fill:red;stroke-width:0"/><rect x="-0.11000000000000139" y="-0.019999999999997523" width="0.01" height="0.01" style="fill:red;stroke-width:0"/></g><g><polyline points="-1.34476e-15,-0.015 -0.02625,-0.015 -0.0525,-0.015 -0.07875,-0.015 -0.105,-0.015 " stroke-width="0.0050000000000000001" style="stroke:pink;fill:none"/><rect x="-0.0050000000000006714" y="-0.01999999999999881" width="0.01" height="0.01" style="fill:red;stroke-width:0"/><rect x="-0.11000000000000139" y="-0.019999999999997523" width="0.01" height="0.01" style="fill:red;stroke-width:0"/></g></g><polyline points="1.83697e-18,-0.015 0.0250047,-0.015 0.0500093,-0.015 0.075014,-0.015 0.100019,-0.015 0.125023,-0.015 0.150028,-0.015 0.175033,-0.015 0.200037,-0.015 0.225042,-0.015 0.250047,-0.015 0.275051,-0.015 0.300056,-0.015 0.32506,-0.015 0.350065,-0.015 0.37507,-0.015 0.400074,-0.015 0.425079,-0.015 0.450084,-0.015 0.475088,-0.015 0.500093,-0.015 0.525098,-0.015 0.550102,-0.015 0.575107,-0.015 0.600112,-0.015 0.625116,-0.015 0.650121,-0.015 0.675126,-0.015 0.70013,-0.015 0.725135,-0.015 0.75014,-0.015 0.775144,-0.015 0.800149,-0.015 0.825154,-0.015 0.850158,-0.015 0.875163,-0.015 0.900167,-0.015 0.925172,-0.015 0.950177,-0.015 0.975181,-0.015 1.00019,-0.015 1.02519,-0.015 1.0502,-0.015 1.0752,-0.015 1.1002,-0.015 1.12521,-0.015 1.15021,-0.015 1.17522,-0.015 1.20022,-0.015 1.22523,-0.015 1.25023,-0.015 1.27524,-0.015 1.30024,-0.015 1.32525,-0.015 1.35025,-0.015 1.37526,-0.015 1.40026,-0.015 1.42527,-0.015 1.45027,-0.015 1.47527,-0.015 1.50028,-0.015 1.52528,-0.015 1.55029,-0.015 1.57529,-0.015 1.6003,-0.015 1.6253,-0.015 1.65031,-0.015 1.67531,-0.015 1.70032,-0.015 1.72532,-0.015 1.75033,-0.015 1.77533,-0.015 1.80033,-0.015 1.82534,-0.015 1.85034,-0.015 1.87535,-0.015 1.90035,-0.015 1.92536,-0.015 1.95036,-0.015 1.97537,-0.015 2.00037,-0.015 2.02538,-0.015 2.05038,-0.015 2.07539,-0.015 2.10039,-0.015 2.1254,-0.015 2.1504,-0.015 2.1754,-0.015 2.20041,-0.015 2.22541,-0.015 2.25042,-0.015 2.27542,-0.015 2.30043,-0.015 2.32543,-0.015 2.35044,-0.015 2.37544,-0.015 2.40045,-0.015 2.42545,-0.015 2.45046,-0.015 2.47546,-0.015 2.50047,-0.015 2.52547,-0.015 2.55047,-0.015 2.57548,-0.015 2.60048,-0.015 2.62549,-0.015 2.65049,-0.015 2.6755,-0.015 2.7005,-0.015 2.72551,-0.015 2.75051,-0.015 2.77552,-0.015 2.80052,-0.015 2.82553,-0.015 2.85053,-0.015 2.87554,-0.015 2.90054,-0.015 2.92554,-0.015 2.95055,-0.015 2.97555,-0.015 3.00056,-0.015 3.02556,-0.015 3.05057,-0.015 3.07557,-0.015 3.10058,-0.015 3.12558,-0.015 3.15059,-0.015 3.17559,-0.015 3.2006,-0.015 3.2256,-0.015 3.2506,-0.015 3.27561,-0.015 3.30061,-0.015 3.32562,-0.015 3.35062,-0.015 3.37563,-0.015 3.40063,-0.015 3.42564,-0.015 3.45064,-0.015 3.47565,-0.015 3.50065,-0.015 3.52566,-0.015 3.55066,-0.015 3.57567,-0.015 3.60067,-0.015 3.62567,-0.015 3.65068,-0.015 3.67568,-0.015 3.70069,-0.015 3.72569,-0.015 3.7507,-0.015 3.7757,-0.015 3.80071,-0.015 3.82571,-0.015 3.85072,-0.015 3.87572,-0.015 3.90073,-0.015 3.92573,-0.015 3.95074,-0.015 3.97574,-0.015 4.00074,-0.015 4.02575,-0.015 4.05075,-0.015 4.07576,-0.015 4.10076,-0.015 4.12577,-0.015 4.15077,-0.015 4.17578,-0.015 4.20078,-0.015 4.22579,-0.015 4.25079,-0.015 4.2758,-0.015 4.3008,-0.015 4.3258,-0.015 4.35081,-0.015 4.37581,-0.015 4.40082,-0.015 4.42582,-0.015 4.45083,-0.015 4.47583,-0.015 4.50084,-0.015 4.52584,-0.015 4.55085,-0.015 4.57585,-0.015 4.60086,-0.015 4.62586,-0.015 4.65087,-0.015 4.67587,-0.015 4.70087,-0.015 4.72588,-0.015 4.75088,-0.015 4.77589,-0.015 4.80089,-0.015 4.8259,-0.015 4.8509,-0.015 4.87591,-0.015 4.90091,-0.015 4.92592,-0.015 4.95092,-0.015 4.97593,-0.015 5.00093,-0.015 5.02594,-0.015 5.05094,-0.015 5.07594,-0.015 5.10095,-0.015 5.12595,-0.015 5.15096,-0.015 5.17596,-0.015 5.20097,-0.015 5.22597,-0.015 5.25098,-0.015 5.27598,-0.015 5.30099,-0.015 5.32599,-0.015 5.351,-0.015 5.376,-0.015 5.40101,-0.0149996 5.42602,-0.0149914 5.45105,-0.0149532 5.47611,-0.0148464 5.50122,-0.0146117 5.52637,-0.0141656 5.55159,-0.0133968 5.57689,-0.0121621 5.60226,-0.0102836 5.62768,-0.0075481 5.65311,-0.00371025 5.67845,0.00149571 5.70356,0.00833122 5.72823,0.0170204 5.75219,0.0276817 5.7752,0.0402652 5.7971,0.0546872 5.81775,0.0708512 5.83701,0.0886491 5.85476,0.107962 5.87086,0.12866 5.88522,0.150605 5.89773,0.17365 5.90832,0.197641 5.91692,0.222418 5.92346,0.247814 5.9279,0.27366 5.93022,0.299782 5.93039,0.326006 5.92842,0.352157 5.92431,0.378058 5.91811,0.403538 5.90984,0.428426 5.89957,0.452554 5.88735,0.475762 5.87329,0.497894 5.85746,0.518802 5.83997,0.538346 5.82095,0.556396 5.80051,0.57283 5.7788,0.587539 5.75596,0.600424 5.73214,0.611399 5.70756,0.620402 5.68251,0.627522 5.65719,0.632973 5.63177,0.637012 5.60634,0.639908 5.58096,0.641909 5.55565,0.643234 5.53042,0.644067 5.50525,0.644557 5.48014,0.644819 5.45508,0.644942 5.43004,0.644988 5.40503,0.644999 5.38002,0.645 5.35501,0.645 5.33001,0.645 5.305,0.645 5.28,0.645 5.255,0.645 5.22999,0.645 5.20499,0.645 5.17998,0.645 5.15498,0.645 5.12997,0.645 5.10497,0.645 5.07996,0.645 5.05496,0.645 5.02995,0.645 5.00495,0.645 4.97994,0.645 4.95494,0.645 4.92993,0.645 4.90493,0.645 4.87993,0.645 4.85492,0.645 4.82992,0.645 4.80491,0.645 4.77991,0.645 4.7549,0.645 4.7299,0.645 4.70489,0.645 4.67989,0.645 4.65488,0.645 4.62988,0.645 4.60487,0.645 4.57987,0.645 4.55487,0.645 4.52986,0.645 4.50486,0.645 4.47985,0.645 4.45485,0.645 4.42984,0.645 4.40484,0.645 4.37983,0.645 4.35483,0.645 4.32982,0.645 4.30482,0.645 4.27981,0.645 4.25481,0.645 4.2298,0.645 4.2048,0.645 4.1798,0.645 4.15479,0.645 4.12979,0.645 4.10478,0.645 4.07978,0.645 4.05477,0.645 4.02977,0.645 4.00476,0.645 3.97976,0.645 3.95475,0.645 3.92975,0.645 3.90474,0.645 3.87974,0.645 3.85473,0.645 3.82973,0.645 3.80473,0.645 3.77972,0.645 3.75472,0.645 3.72971,0.645 3.70471,0.645 3.6797,0.645 3.6547,0.645 3.62969,0.645 3.60469,0.645 3.57968,0.645 3.55468,0.645 3.52967,0.645 3.50467,0.645 3.47967,0.645 3.45466,0.645 3.42966,0.645 3.40465,0.645 3.37965,0.645 3.35464,0.645 3.32964,0.645 3.30463,0.645 3.27963,0.645 3.25462,0.645 3.22962,0.645 3.20461,0.645 3.17961,0.645 3.1546,0.645 3.1296,0.645 3.1046,0.645 3.07959,0.645 3.05459,0.645 3.02958,0.645 3.00458,0.645 2.97957,0.645 2.95457,0.645 2.92956,0.645 2.90456,0.645 2.87955,0.645 2.85455,0.645 2.82954,0.645 2.80454,0.645 2.77953,0.645 2.75453,0.645 2.72953,0.645 2.70452,0.645 2.67952,0.645 2.65451,0.645 2.62951,0.645 2.6045,0.645 2.5795,0.645 2.55449,0.645 2.52949,0.645 2.50448,0.645 2.47948,0.645 2.45447,0.645 2.42947,0.645 2.40446,0.645 2.37946,0.645 2.35446,0.645 2.32945,0.645 2.30445,0.645 2.27944,0.645 2.25444,0.645 2.22943,0.645 2.20443,0.645 2.17942,0.645 2.15442,0.645 2.12941,0.645 2.10441,0.645 2.0794,0.645 2.0544,0.645 2.0294,0.645 2.00439,0.645 1.97939,0.645 1.95438,0.645 1.92938,0.645 1.90437,0.645 1.87937,0.645 1.85436,0.645 1.82936,0.645 1.80435,0.645 1.77935,0.645 1.75434,0.645 1.72934,0.645 1.70433,0.645 1.67933,0.645 1.65433,0.645 1.62932,0.645 1.60432,0.645 1.57931,0.645 1.55431,0.645 1.5293,0.645 1.5043,0.645 1.47929,0.645 1.45429,0.645 1.42928,0.645 1.40428,0.645 1.37927,0.645 1.35427,0.645 1.32926,0.645 1.30426,0.645 1.27926,0.645 1.25425,0.645 1.22925,0.645 1.20424,0.645 1.17924,0.645 1.15423,0.645 1.12923,0.645 1.10422,0.645 1.07922,0.645 1.05421,0.645 1.02921,0.645 1.0042,0.645 0.9792,0.645 0.954195,0.645 0.92919,0.645 0.904186,0.645 0.879181,0.645 0.854176,0.645 0.829172,0.645 0.804167,0.645 0.779163,0.645 0.754158,0.645 0.729153,0.645 0.704149,0.645 0.679144,0.645 0.654139,0.645 0.629135,0.645 0.60413,0.645 0.579125,0.645 0.554121,0.645 0.529116,0.645 0.504111,0.645 0.479107,0.645 0.454102,0.645 0.429097,0.645 0.404093,0.645 0.379088,0.645 0.354083,0.645 0.329079,0.645 0.304074,0.645 0.279069,0.645 0.254065,0.645 0.22906,0.645 0.204056,0.645 0.179051,0.645 0.154046,0.645 0.129042,0.645 0.104037,0.645 0.0790323,0.645 0.0540276,0.645 0.029023,0.645 0.0040183,0.645 -0.0209863,0.645 -0.045991,0.645 -0.0709957,0.645 -0.0960003,0.645 -0.121006,0.645 -0.146021,0.644991 -0.171053,0.644953 -0.196114,0.644846 -0.221216,0.644612 -0.246372,0.644166 -0.271594,0.643397 -0.296891,0.642162 -0.32226,0.640284 -0.347682,0.637548 -0.37311,0.63371 -0.398452,0.628504 -0.423559,0.621669 -0.448229,0.61298 -0.47219,0.602318 -0.495199,0.589735 -0.517102,0.575313 -0.537753,0.559149 -0.557014,0.541351 -0.574755,0.522038 -0.590859,0.50134 -0.605217,0.479395 -0.617733,0.45635 -0.628323,0.432359 -0.636918,0.407582 -0.643458,0.382186 -0.647901,0.35634 -0.650216,0.330218 -0.650389,0.303994 -0.648417,0.277843 -0.644314,0.251942 -0.638109,0.226462 -0.629841,0.201574 -0.619567,0.177446 -0.607355,0.154238 -0.593286,0.132106 -0.577456,0.111198 -0.55997,0.0916537 -0.540945,0.0736041 -0.520509,0.05717 -0.498797,0.0424612 -0.475956,0.0295763 -0.452137,0.0186007 -0.42756,0.00959791 -0.402507,0.00247753 -0.377192,-0.00297276 -0.35177,-0.00701247 -0.326342,-0.00990785 -0.300963,-0.0119088 -0.275654,-0.013234 -0.25042,-0.0140672 -0.225254,-0.0145568 -0.200145,-0.0148192 -0.175078,-0.014942 -0.150042,-0.014988 -0.125025,-0.0149992 -0.100019,-0.015 -0.075014,-0.015 -0.0500093,-0.015 -0.0250047,-0.015 1.83697e-18,-0.015 " stroke="blue" style="stroke-opacity:0.5;stroke-width:0.010;fill:none;marker-end:url(#secArrow-blue)"/><g><polyline points="0.0446,-0.006 0.0401,-0.006 0.0401,-0.024 0.0446,-0.024 " stroke="lightgrey" fill="none" style="stroke-width:0.004"/></g><g><polyline points="0.6154,-0.024 0.6199,-0.024 0.6199,-0.006 0.6154,-0.006 " stroke="lightgrey" fill="none" style="stroke-width:0.004"/></g><g><polyline points="0.7046,-0.006 0.7001,-0.006 0.7001,-0.024 0.7046,-0.024 " stroke="lightgrey" fill="none" style="stroke-width:0.004"/></g><g><polyline points="1.2754,-0.024 1.2799,-0.024 1.2799,-0.006 1.2754,-0.006 " stroke="lightgrey" fill="none" style="stroke-width:0.004"/></g><g><polyline points="1.3646,-0.006 1.3601,-0.006 1.3601,-0.024 1.3646,-0.024 " stroke="lightgrey" fill="none" style="stroke-width:0.004"/></g><g><polyline points="1.9354,-0.024 1.9399,-0.024 1.9399,-0.006 1.9354,-0.006 " stroke="lightgrey" fill="none" style="stroke-width:0.004"/></g><g><polyline points="2.0246,-0.006 2.0201,-0.006 2.0201,-0.024 2.0246,-0.024 " stroke="lightgrey" fill="none" style="stroke-width:0.004"/></g><g><polyline points="2.5954,-0.024 2.5999,-0.024 2.5999,-0.006 2.5954,-0.006 " stroke="lightgrey" fill="none" style="stroke-width:0.004"/></g><g><polyline points="2.6846,-0.006 2.6801,-0.006 2.6801,-0.024 2.6846,-0.024 " stroke="lightgrey" fill="none" style="stroke-width:0.004"/></g><g><polyline points="3.2554,-0.024 3.2599,-0.024 3.2599,-0.006 3.2554,-0.006 " stroke="lightgrey" fill="none" style="stroke-width:0.004"/></g><g><polyline points="3.3446,-0.006 3.3401,-0.006 3.3401,-0.024 3.3446,-0.024 " stroke="lightgrey" fill="none" style="stroke-width:0.004"/></g><g><polyline points="3.9154,-0.024 3.9199,-0.024 3.9199,-0.006 3.9154,-0.006 " stroke="lightgrey" fill="none" style="stroke-width:0.004"/></g><g><polyline points="4.0046,-0.006 4.0001,-0.006 4.0001,-0.024 4.0046,-0.024 " stroke="lightgrey" fill="none" style="stroke-width:0.004"/></g><g><polyline points="4.5754,-0.024 4.5799,-0.024 4.5799,-0.006 4.5754,-0.006 " stroke="lightgrey" fill="none" style="stroke-width:0.004"/></g><g><polyline points="4.6646,-0.006 4.6601,-0.006 4.6601,-0.024 4.6646,-0.024 " stroke="lightgrey" fill="none" style="stroke-width:0.004"/></g><g><polyline points="5.2354,-0.024 5.2399,-0.024 5.2399,-0.006 5.2354,-0.006 " stroke="lightgrey" fill="none" style="stroke-width:0.004"/></g><g><polyline points="5.3246,-0.006 5.3201,-0.006 5.3201,-0.024 5.3246,-0.024 " stroke="lightgrey" fill="none" style="stroke-width:0.004"/></g><g><polyline points="5.69111,-0.00463454 5.69545,-0.00343068 5.69063,0.0139132 5.68629,0.0127094 " stroke="lightgrey" fill="none" style="stroke-width:0.004"/></g><g><polyline points="5.76977,0.0474682 5.76588,0.045217 5.77488,0.0296315 5.77878,0.0318827 " stroke="lightgrey" fill="none" style="stroke-width:0.004"/></g><g><polyline points="5.89312,0.146221 5.89537,0.150118 5.87978,0.159123 5.87753,0.155227 " stroke="lightgrey" fill="none" style="stroke-width:0.004"/></g><g><polyline points="5.91215,0.238803 5.91099,0.234456 5.92838,0.229803 5.92954,0.23415 " stroke="lightgrey" fill="none" style="stroke-width:0.004"/></g><g><polyline points="5.92954,0.39585 5.92838,0.400197 5.91099,0.395544 5.91215,0.391197 " stroke="lightgrey" fill="none" style="stroke-width:0.004"/></g><g><polyline points="5.87753,0.474773 5.87978,0.470877 5.89537,0.479882 5.89312,0.483779 " stroke="lightgrey" fill="none" style="stroke-width:0.004"/></g><g><polyline points="5.77878,0.598117 5.77488,0.600369 5.76588,0.584783 5.76977,0.582532 " stroke="lightgrey" fill="none" style="stroke-width:0.004"/></g><g><polyline points="5.68629,0.617291 5.69063,0.616087 5.69545,0.633431 5.69111,0.634635 " stroke="lightgrey" fill="none" style="stroke-width:0.004"/></g><g><polyline points="5.3246,0.654 5.3201,0.654 5.3201,0.636 5.3246,0.636 " stroke="lightgrey" fill="none" style="stroke-width:0.004"/></g><g><polyline points="5.2354,0.636 5.2399,0.636 5.2399,0.654 5.2354,0.654 " stroke="lightgrey" fill="none" style="stroke-width:0.004"/></g><g><polyline points="4.6646,0.654 4.6601,0.654 4.6601,0.636 4.6646,0.636 " stroke="lightgrey" fill="none" style="stroke-width:0.004"/></g><g><polyline points="4.5754,0.636 4.5799,0.636 4.5799,0.654 4.5754,0.654 " stroke="lightgrey" fill="none" style="stroke-width:0.004"/></g><g><polyline points="4.0046,0.654 4.0001,0.654 4.0001,0.636 4.0046,0.636 " stroke="lightgrey" fill="none" style="stroke-width:0.004"/></g><g><polyline points="3.9154,0.636 3.9199,0.636 3.9199,0.654 3.9154,0.654 " stroke="lightgrey" fill="none" style="stroke-width:0.004"/></g><g><polyline points="3.3446,0.654 3.3401,0.654 3.3401,0.636 3.3446,0.636 " stroke="lightgrey" fill="none" style="stroke-width:0.004"/></g><g><polyline points="3.2554,0.636 3.2599,0.636 3.2599,0.654 3.2554,0.654 " stroke="lightgrey" fill="none" style="stroke-width:0.004"/></g><g><polyline points="2.6846,0.654 2.6801,0.654 2.6801,0.636 2.6846,0.636 " stroke="lightgrey" fill="none" style="stroke-width:0.004"/></g><g><polyline points="2.5954,0.636 2.5999,0.636 2.5999,0.654 2.5954,0.654 " stroke="lightgrey" fill="none" style="stroke-width:0.004"/></g><g><polyline points="2.0246,0.654 2.0201,0.654 2.0201,0.636 2.0246,0.636 " stroke="lightgrey" fill="none" style="stroke-width:0.004"/></g><g><polyline points="1.9354,0.636 1.9399,0.636 1.9399,0.654 1.9354,0.654 " stroke="lightgrey" fill="none" style="stroke-width:0.004"/></g><g><polyline points="1.3646,0.654 1.3601,0.654 1.3601,0.636 1.3646,0.636 " stroke="lightgrey" fill="none" style="stroke-width:0.004"/></g><g><polyline points="1.2754,0.636 1.2799,0.636 1.2799,0.654 1.2754,0.654 " stroke="lightgrey" fill="none" style="stroke-width:0.004"/></g><g><polyline points="0.7046,0.654 0.7001,0.654 0.7001,0.636 0.7046,0.636 " stroke="lightgrey" fill="none" style="stroke-width:0.004"/></g><g><polyline points="0.6154,0.636 0.6199,0.636 0.6199,0.654 0.6154,0.654 " stroke="lightgrey" fill="none" style="stroke-width:0.004"/></g><g><polyline points="0.0446,0.654 0.0401,0.654 0.0401,0.636 0.0446,0.636 " stroke="lightgrey" fill="none" style="stroke-width:0.004"/></g><g><polyline points="-0.0446,0.636 -0.0401,0.636 -0.0401,0.654 -0.0446,0.654 " stroke="lightgrey" fill="none" style="stroke-width:0.004"/></g><g><polyline points="-0.411109,0.634635 -0.415445,0.633431 -0.41063,0.616087 -0.406294,0.617291 " stroke="lightgrey" fill="none" style="stroke-width:0.004"/></g><g><polyline points="-0.489773,0.582532 -0.485877,0.584783 -0.494882,0.600369 -0.498779,0.598117 " stroke="lightgrey" fill="none" style="stroke-width:0.004"/></g><g><polyline points="-0.613117,0.483779 -0.615369,0.479882 -0.599783,0.470877 -0.597532,0.474773 " stroke="lightgrey" fill="none" style="stroke-width:0.004"/></g><g><polyline points="-0.63215,0.391197 -0.630987,0.395544 -0.648375,0.400197 -0.649539,0.39585 " stroke="lightgrey" fill="none" style="stroke-width:0.004"/></g><g><polyline points="-0.649539,0.23415 -0.648375,0.229803 -0.630987,0.234456 -0.63215,0.238803 " stroke="lightgrey" fill="none" style="stroke-width:0.004"/></g><g><polyline points="-0.597532,0.155227 -0.599783,0.159123 -0.615369,0.150118 -0.613117,0.146221 " stroke="lightgrey" fill="none" style="stroke-width:0.004"/></g><g><polyline points="-0.498779,0.0318827 -0.494882,0.0296315 -0.485877,0.045217 -0.489773,0.0474682 " stroke="lightgrey" fill="none" style="stroke-width:0.004"/></g><g><polyline points="-0.406294,0.0127094 -0.41063,0.0139132 -0.415445,-0.00343068 -0.411109,-0.00463454 " stroke="lightgrey" fill="none" style="stroke-width:0.004"/></g><g><polyline points="-0.0446,-0.024 -0.0401,-0.024 -0.0401,-0.006 -0.0446,-0.006 " stroke="lightgrey" fill="none" style="stroke-width:0.004"/></g></g></svg>