<?xml version="1.0" encoding="utf-8"?>
<svg version="1.1" xmlns="http://www.w3.org/2000/svg" viewBox="-0.735577 -1.00835 6.75115 1.75335"><defs><marker id="secArrow-blue" markerWidth="3" markerHeight="4" refX="3" refY="2" orient="auto"><path d="M3,2 L0,4 L0,0 L3,2" fill="blue" style="stroke:none;fill-opacity:0.5"/></marker><marker id="secArrow-seagreen" markerWidth="3" markerHeight="4" refX="3" refY="2" orient="auto"><path d="M3,2 L0,4 L0,0 L3,2" fill="seagreen" style="stroke:none;fill-opacity:0.5"/></marker><marker id="secArrow-orange" markerWidth="3" markerHeight="4" refX="3" refY="2" orient="auto"><path d="M3,2 L0,4 L0,0 L3,2" fill="orange" style="stroke:none;fill-opacity:0.5"/></marker></defs><g><g><g><polygon points="0,-0 0.0825,1.01033e-17 0.165,2.02067e-17 0.2475,3.031e-17 0.33,4.04133e-17 0.4125,5.05167e-17 0.495,6.062e-17 0.5775,7.07234e-17 0.66,8.08267e-17 0.66,0.094 -1.15117e-17,0.094 " style="fill:#eee;stroke:darkgrey;stroke-width:0.005"/><polyline points="0,-0 0.0825,1.01033e-17 0.165,2.02067e-17 0.2475,3.031e-17 0.33,4.04133e-17 0.4125,5.05167e-17 0.495,6.062e-17 0.5775,7.07234e-17 0.66,8.08267e-17 " style="fill:#eee;stroke:black;stroke-width:0.010"/><polygon points="0.02,0.0188 0.02,0.0752 0.04,0.047 " style="fill:#ccc;stroke-width:0"/><text x="0.30649999999999999" y="0.070500000000000035" font-size="0.050000000000000003" style="fill:darkgrey">0</text></g><g><polygon points="0.66,8.08267e-17 0.7425,9.093e-17 0.825,1.01033e-16 0.9075,1.11137e-16 0.99,1.2124e-16 1.0725,1.31343e-16 1.155,1.41447e-16 1.2375,1.5155e-16 1.32,1.61653e-16 1.32,0.094 0.66,0.094 " style="fill:#eee;stroke:darkgrey;stroke-width:0.005"/><polyline points="0.66,8.08267e-17 0.7425,9.093e-17 0.825,1.01033e-16 0.9075,1.11137e-16 0.99,1.2124e-16 1.0725,1.31343e-16 1.155,1.41447e-16 1.2375,1.5155e-16 1.32,1.61653e-16 " style="fill:#eee;stroke:black;stroke-width:0.010"/><polygon points="0.68,0.0188 0.68,0.0752 0.7,0.047 " style="fill:#ccc;stroke-width:0"/><text x="0.96650000000000003" y="0.070500000000000118" font-size="0.050000000000000003" style="fill:darkgrey">1</text></g><g><polygon points="1.32,1.61653e-16 1.4025,1.71757e-16 1.485,1.8186e-16 1.5675,1.91963e-16 1.65,2.02067e-16 1.7325,2.1217e-16 1.815,2.22273e-16 1.8975,2.32377e-16 1.98,2.4248e-16 1.98,0.094 1.32,0.094 " style="fill:#eee;stroke:darkgrey;stroke-width:0.005"/><polyline points="1.32,1.61653e-16 1.4025,1.71757e-16 1.485,1.8186e-16 1.5675,1.91963e-16 1.65,2.02067e-16 1.7325,2.1217e-16 1.815,2.22273e-16 1.8975,2.32377e-16 1.98,2.4248e-16 " style="fill:#eee;stroke:black;stroke-width:0.010"/><polygon points="1.34,0.0188 1.34,0.0752 1.36,0.047 " style="fill:#ccc;stroke-width:0"/><text x="1.6265000000000001" y="0.070500000000000201" font-size="0.050000000000000003" style="fill:darkgrey">2</text></g><g><polygon points="1.98,2.4248e-16 2.0625,2.52583e-16 2.145,2.62687e-16 2.2275,2.7279e-16 2.31,2.82893e-16 2.3925,2.92997e-16 2.475,3.031e-16 2.5575,3.13203e-16 2.64,3.23307e-16 2.64,0.094 1.98,0.094 " style="fill:#eee;stroke:darkgrey;stroke-width:0.005"/><polyline points="1.98,2.4248e-16 2.0625,2.52583e-16 2.145,2.62687e-16 2.2275,2.7279e-16 2.31,2.82893e-16 2.3925,2.92997e-16 2.475,3.031e-16 2.5575,3.13203e-16 2.64,3.23307e-16 " style="fill:#eee;stroke:black;stroke-width:0.010"/><polygon points="2,0.0188 2,0.0752 2.02,0.047 " style="fill:#ccc;stroke-width:0"/><text x="2.2865000000000002" y="0.070500000000000285" font-size="0.050000000000000003" style="fill:darkgrey">3</text></g><g><polygon points="2.64,3.23307e-16 2.7225,3.3341e-16 2.805,3.43513e-16 2.8875,3.53617e-16 2.97,3.6372e-16 3.0525,3.73823e-16 3.135,3.83927e-16 3.2175,3.9403e-16 3.3,4.04133e-16 3.3,0.094 2.64,0.094 " style="fill:#eee;stroke:darkgrey;stroke-width:0.005"/><polyline points="2.64,3.23307e-16 2.7225,3.3341e-16 2.805,3.43513e-16 2.8875,3.53617e-16 2.97,3.6372e-16 3.0525,3.73823e-16 3.135,3.83927e-16 3.2175,3.9403e-16 3.3,4.04133e-16 " style="fill:#eee;stroke:black;stroke-width:0.010"/><polygon points="2.66,0.0188 2.66,0.0752 2.68,0.047 " style="fill:#ccc;stroke-width:0"/><text x="2.9465000000000003" y="0.070500000000000368" font-size="0.050000000000000003" style="fill:darkgrey">4</text></g><g><polygon points="3.3,4.04133e-16 3.3825,4.14237e-16 3.465,4.2434e-16 3.5475,4.34443e-16 3.63,4.44547e-16 3.7125,4.5465e-16 3.795,4.64753e-16 3.8775,4.74857e-16 3.96,4.8496e-16 3.96,0.094 3.3,0.094 " style="fill:#eee;stroke:darkgrey;stroke-width:0.005"/><polyline points="3.3,4.04133e-16 3.3825,4.14237e-16 3.465,4.2434e-16 3.5475,4.34443e-16 3.63,4.44547e-16 3.7125,4.5465e-16 3.795,4.64753e-16 3.8775,4.74857e-16 3.96,4.8496e-16 " style="fill:#eee;stroke:black;stroke-width:0.010"/><polygon points="3.32,0.0188 3.32,0.0752 3.34,0.047 " style="fill:#ccc;stroke-width:0"/><text x="3.6065000000000005" y="0.070500000000000451" font-size="0.050000000000000003" style="fill:darkgrey">5</text></g><g><polygon points="3.96,4.8496e-16 4.0425,4.95063e-16 4.125,5.05167e-16 4.2075,5.1527e-16 4.29,5.25373e-16 4.3725,5.35477e-16 4.455,5.4558e-16 4.5375,5.55683e-16 4.62,5.65787e-16 4.62,0.094 3.96,0.094 " style="fill:#eee;stroke:darkgrey;stroke-width:0.005"/><polyline points="3.96,4.8496e-16 4.0425,4.95063e-16 4.125,5.05167e-16 4.2075,5.1527e-16 4.29,5.25373e-16 4.3725,5.35477e-16 4.455,5.4558e-16 4.5375,5.55683e-16 4.62,5.65787e-16 " style="fill:#eee;stroke:black;stroke-width:0.010"/><polygon points="3.98,0.0188 3.98,0.0752 4,0.047 " style="fill:#ccc;stroke-width:0"/><text x="4.2664999999999997" y="0.070500000000000534" font-size="0.050000000000000003" style="fill:darkgrey">6</text></g><g><polygon points="4.62,5.65787e-16 4.7025,5.7589e-16 4.785,5.85993e-16 4.8675,5.96097e-16 4.95,6.062e-16 5.0325,6.16304e-16 5.115,6.26407e-16 5.1975,6.3651e-16 5.28,6.46614e-16 5.28,0.094 4.62,0.094 " style="fill:#eee;stroke:darkgrey;stroke-width:0.005"/><polyline points="4.62,5.65787e-16 4.7025,5.7589e-16 4.785,5.85993e-16 4.8675,5.96097e-16 4.95,6.062e-16 5.0325,6.16304e-16 5.115,6.26407e-16 5.1975,6.3651e-16 5.28,6.46614e-16 " style="fill:#eee;stroke:black;stroke-width:0.010"/><polygon points="4.64,0.0188 4.64,0.0752 4.66,0.047 " style="fill:#ccc;stroke-width:0"/><text x="4.9264999999999999" y="0.070500000000000604" font-size="0.050000000000000003" style="fill:darkgrey">7</text></g><g><polygon points="5.28,6.46614e-16 5.33633,6.53512e-16 5.39266,3.66468e-08 5.44899,4.17485e-05 5.50532,0.000445667 5.56162,0.00204461 5.61778,0.00636481 5.6733,0.0156938 5.72694,0.0326832 5.69097,0.119528 5.28,0.094 " style="fill:#eee;stroke:darkgrey;stroke-width:0.005"/><polyline points="5.28,6.46614e-16 5.33633,6.53512e-16 5.39266,3.66468e-08 5.44899,4.17485e-05 5.50532,0.000445667 5.56162,0.00204461 5.61778,0.00636481 5.6733,0.0156938 5.72694,0.0326832 " style="fill:#eee;stroke:black;stroke-width:0.010"/><polygon points="5.3,0.0188 5.3,0.0752 5.32,0.047 " style="fill:#ccc;stroke-width:0"/><text x="5.4811430891240249" y="0.07094080329175971" font-size="0.050000000000000003" style="fill:darkgrey">8</text></g><g><polygon points="5.72694,0.0326832 5.75405,0.0455047 5.77977,0.0609216 5.80386,0.0787854 5.82608,0.0989241 5.84621,0.121144 5.86408,0.14523 5.8795,0.170952 5.89232,0.198061 5.78748,0.241486 5.68351,0.137523 " style="fill:#eee;stroke:darkgrey;stroke-width:0.005"/><polyline points="5.72694,0.0326832 5.75405,0.0455047 5.77977,0.0609216 5.80386,0.0787854 5.82608,0.0989241 5.84621,0.121144 5.86408,0.14523 5.8795,0.170952 5.89232,0.198061 " style="fill:#eee;stroke:black;stroke-width:0.010"/><polygon points="5.73673,0.0613047 5.71068,0.124208 5.74218,0.10041 " style="fill:#ccc;stroke-width:0"/><text x="5.7575863435240917" y="0.16741365647590856" font-size="0.050000000000000003" style="fill:darkgrey">9</text></g><g><polygon points="5.89232,0.198061 5.90242,0.226296 5.90971,0.255385 5.91411,0.285048 5.91558,0.315 5.91411,0.344952 5.90971,0.374615 5.90242,0.403704 5.89232,0.431939 5.78748,0.388514 5.78748,0.241486 " style="fill:#eee;stroke:darkgrey;stroke-width:0.005"/><polyline points="5.89232,0.198061 5.90242,0.226296 5.90971,0.255385 5.91411,0.285048 5.91558,0.315 5.91411,0.344952 5.90971,0.374615 5.90242,0.403704 5.89232,0.431939 " style="fill:#eee;stroke:black;stroke-width:0.010"/><polygon points="5.879,0.225223 5.8161,0.251279 5.8552,0.256729 " style="fill:#ccc;stroke-width:0"/><text x="5.8304695614864386" y="0.34336930975000074" font-size="0.050000000000000003" style="fill:darkgrey">10</text></g><g><polygon points="5.89232,0.431939 5.8795,0.459048 5.86408,0.48477 5.84621,0.508856 5.82608,0.531076 5.80386,0.551215 5.77977,0.569078 5.75405,0.584495 5.72694,0.597317 5.68351,0.492477 5.78748,0.388514 " style="fill:#eee;stroke:darkgrey;stroke-width:0.005"/><polyline points="5.89232,0.431939 5.8795,0.459048 5.86408,0.48477 5.84621,0.508856 5.82608,0.531076 5.80386,0.551215 5.77977,0.569078 5.75405,0.584495 5.72694,0.597317 " style="fill:#eee;stroke:black;stroke-width:0.010"/><polygon points="5.8637,0.441732 5.80079,0.415676 5.82459,0.447182 " style="fill:#ccc;stroke-width:0"/><text x="5.7575863435240917" y="0.51932496302409292" font-size="0.050000000000000003" style="fill:darkgrey">11</text></g><g><polygon points="5.72694,0.597317 5.6733,0.614306 5.61778,0.623635 5.56162,0.627955 5.50532,0.629554 5.44899,0.629958 5.39266,0.63 5.33633,0.63 5.28,0.63 5.28,0.536 5.69097,0.510472 " style="fill:#eee;stroke:darkgrey;stroke-width:0.005"/><polyline points="5.72694,0.597317 5.6733,0.614306 5.61778,0.623635 5.56162,0.627955 5.50532,0.629554 5.44899,0.629958 5.39266,0.63 5.33633,0.63 5.28,0.63 " style="fill:#eee;stroke:black;stroke-width:0.010"/><polygon points="5.70127,0.587602 5.67968,0.535495 5.672,0.569202 " style="fill:#ccc;stroke-width:0"/><text x="5.481143089124024" y="0.60605919670824171" font-size="0.050000000000000003" style="fill:darkgrey">12</text></g><g><polygon points="5.28,0.63 5.1975,0.63 5.115,0.63 5.0325,0.63 4.95,0.63 4.8675,0.63 4.785,0.63 4.7025,0.63 4.62,0.63 4.62,0.536 5.28,0.536 " style="fill:#eee;stroke:darkgrey;stroke-width:0.005"/><polyline points="5.28,0.63 5.1975,0.63 5.115,0.63 5.0325,0.63 4.95,0.63 4.8675,0.63 4.785,0.63 4.7025,0.63 4.62,0.63 " style="fill:#eee;stroke:black;stroke-width:0.010"/><polygon points="5.26,0.6112 5.26,0.5548 5.24,0.583 " style="fill:#ccc;stroke-width:0"/><text x="4.9264999999999999" y="0.60650000000000093" font-size="0.050000000000000003" style="fill:darkgrey">13</text></g><g><polygon points="4.62,0.63 4.5375,0.63 4.455,0.63 4.3725,0.63 4.29,0.63 4.2075,0.63 4.125,0.63 4.0425,0.63 3.96,0.63 3.96,0.536 4.62,0.536 " style="fill:#eee;stroke:darkgrey;stroke-width:0.005"/><polyline points="4.62,0.63 4.5375,0.63 4.455,0.63 4.3725,0.63 4.29,0.63 4.2075,0.63 4.125,0.63 4.0425,0.63 3.96,0.63 " style="fill:#eee;stroke:black;stroke-width:0.010"/><polygon points="4.6,0.6112 4.6,0.5548 4.58,0.583 " style="fill:#ccc;stroke-width:0"/><text x="4.2664999999999997" y="0.60650000000000115" font-size="0.050000000000000003" style="fill:darkgrey">14</text></g><g><polygon points="3.96,0.63 3.8775,0.63 3.795,0.63 3.7125,0.63 3.63,0.63 3.5475,0.63 3.465,0.63 3.3825,0.63 3.3,0.63 3.3,0.536 3.96,0.536 " style="fill:#eee;stroke:darkgrey;stroke-width:0.005"/><polyline points="3.96,0.63 3.8775,0.63 3.795,0.63 3.7125,0.63 3.63,0.63 3.5475,0.63 3.465,0.63 3.3825,0.63 3.3,0.63 " style="fill:#eee;stroke:black;stroke-width:0.010"/><polygon points="3.94,0.6112 3.94,0.5548 3.92,0.583 " style="fill:#ccc;stroke-width:0"/><text x="3.6065" y="0.60650000000000137" font-size="0.050000000000000003" style="fill:darkgrey">15</text></g><g><polygon points="3.3,0.63 3.2175,0.63 3.135,0.63 3.0525,0.63 2.97,0.63 2.8875,0.63 2.805,0.63 2.7225,0.63 2.64,0.63 2.64,0.536 3.3,0.536 " style="fill:#eee;stroke:darkgrey;stroke-width:0.005"/><polyline points="3.3,0.63 3.2175,0.63 3.135,0.63 3.0525,0.63 2.97,0.63 2.8875,0.63 2.805,0.63 2.7225,0.63 2.64,0.63 " style="fill:#eee;stroke:black;stroke-width:0.010"/><polygon points="3.28,0.6112 3.28,0.5548 3.26,0.583 " style="fill:#ccc;stroke-width:0"/><text x="2.9464999999999999" y="0.6065000000000017" font-size="0.050000000000000003" style="fill:darkgrey">16</text></g><g><polygon points="2.64,0.63 2.5575,0.63 2.475,0.63 2.3925,0.63 2.31,0.63 2.2275,0.63 2.145,0.63 2.0625,0.63 1.98,0.63 1.98,0.536 2.64,0.536 " style="fill:#eee;stroke:darkgrey;stroke-width:0.005"/><polyline points="2.64,0.63 2.5575,0.63 2.475,0.63 2.3925,0.63 2.31,0.63 2.2275,0.63 2.145,0.63 2.0625,0.63 1.98,0.63 " style="fill:#eee;stroke:black;stroke-width:0.010"/><polygon points="2.62,0.6112 2.62,0.5548 2.6,0.583 " style="fill:#ccc;stroke-width:0"/><text x="2.2864999999999998" y="0.60650000000000193" font-size="0.050000000000000003" style="fill:darkgrey">17</text></g><g><polygon points="1.98,0.63 1.8975,0.63 1.815,0.63 1.7325,0.63 1.65,0.63 1.5675,0.63 1.485,0.63 1.4025,0.63 1.32,0.63 1.32,0.536 1.98,0.536 " style="fill:#eee;stroke:darkgrey;stroke-width:0.005"/><polyline points="1.98,0.63 1.8975,0.63 1.815,0.63 1.7325,0.63 1.65,0.63 1.5675,0.63 1.485,0.63 1.4025,0.63 1.32,0.63 " style="fill:#eee;stroke:black;stroke-width:0.010"/><polygon points="1.96,0.6112 1.96,0.5548 1.94,0.583 " style="fill:#ccc;stroke-width:0"/><text x="1.6264999999999994" y="0.60650000000000215" font-size="0.050000000000000003" style="fill:darkgrey">18</text></g><g><polygon points="1.32,0.63 1.2375,0.63 1.155,0.63 1.0725,0.63 0.99,0.63 0.9075,0.63 0.825,0.63 0.7425,0.63 0.66,0.63 0.66,0.536 1.32,0.536 " style="fill:#eee;stroke:darkgrey;stroke-width:0.005"/><polyline points="1.32,0.63 1.2375,0.63 1.155,0.63 1.0725,0.63 0.99,0.63 0.9075,0.63 0.825,0.63 0.7425,0.63 0.66,0.63 " style="fill:#eee;stroke:black;stroke-width:0.010"/><polygon points="1.3,0.6112 1.3,0.5548 1.28,0.583 " style="fill:#ccc;stroke-width:0"/><text x="0.96649999999999936" y="0.60650000000000237" font-size="0.050000000000000003" style="fill:darkgrey">19</text></g><g><polygon points="0.66,0.63 0.5775,0.63 0.495,0.63 0.4125,0.63 0.33,0.63 0.2475,0.63 0.165,0.63 0.0825,0.63 -9.99201e-16,0.63 -1.02943e-15,0.536 0.66,0.536 " style="fill:#eee;stroke:darkgrey;stroke-width:0.005"/><polyline points="0.66,0.63 0.5775,0.63 0.495,0.63 0.4125,0.63 0.33,0.63 0.2475,0.63 0.165,0.63 0.0825,0.63 -9.99201e-16,0.63 " style="fill:#eee;stroke:black;stroke-width:0.010"/><polygon points="0.64,0.6112 0.64,0.5548 0.62,0.583 " style="fill:#ccc;stroke-width:0"/><text x="0.30649999999999905" y="0.6065000000000027" font-size="0.050000000000000003" style="fill:darkgrey">20</text></g><g><polygon points="-9.65331e-16,0.63 -0.0563303,0.63 -0.112661,0.63 -0.168991,0.629958 -0.225319,0.629554 -0.281624,0.627955 -0.337778,0.623635 -0.393297,0.614306 -0.446939,0.597317 -0.410967,0.510472 -9.95564e-16,0.536 " style="fill:#eee;stroke:darkgrey;stroke-width:0.005"/><polyline points="-9.65331e-16,0.63 -0.0563303,0.63 -0.112661,0.63 -0.168991,0.629958 -0.225319,0.629554 -0.281624,0.627955 -0.337778,0.623635 -0.393297,0.614306 -0.446939,0.597317 " style="fill:#eee;stroke:black;stroke-width:0.010"/><polygon points="-0.02,0.6112 -0.02,0.5548 -0.04,0.583 " style="fill:#ccc;stroke-width:0"/><text x="-0.24814308912402586" y="0.60605919670824382" font-size="0.050000000000000003" style="fill:darkgrey">21</text></g><g><polygon points="-0.446939,0.597317 -0.474048,0.584495 -0.49977,0.569078 -0.523856,0.551215 -0.546076,0.531076 -0.566215,0.508856 -0.584078,0.48477 -0.599495,0.459048 -0.612317,0.431939 -0.507477,0.388514 -0.403514,0.492477 " style="fill:#eee;stroke:darkgrey;stroke-width:0.005"/><polyline points="-0.446939,0.597317 -0.474048,0.584495 -0.49977,0.569078 -0.523856,0.551215 -0.546076,0.531076 -0.566215,0.508856 -0.584078,0.48477 -0.599495,0.459048 -0.612317,0.431939 " style="fill:#eee;stroke:black;stroke-width:0.010"/><polygon points="-0.456732,0.568695 -0.430676,0.505792 -0.462182,0.52959 " style="fill:#ccc;stroke-width:0"/><text x="-0.53432496302409338" y="0.51932496302409525" font-size="0.050000000000000003" style="fill:darkgrey">22</text></g><g><polygon points="-0.612317,0.431939 -0.622419,0.403704 -0.629706,0.374615 -0.634106,0.344952 -0.635577,0.315 -0.634106,0.285048 -0.629706,0.255385 -0.622419,0.226296 -0.612317,0.198061 -0.507477,0.241486 -0.507477,0.388514 " style="fill:#eee;stroke:darkgrey;stroke-width:0.005"/><polyline points="-0.612317,0.431939 -0.622419,0.403704 -0.629706,0.374615 -0.634106,0.344952 -0.635577,0.315 -0.634106,0.285048 -0.629706,0.255385 -0.622419,0.226296 -0.612317,0.198061 " style="fill:#eee;stroke:black;stroke-width:0.010"/><polygon points="-0.599003,0.404777 -0.536099,0.378721 -0.575204,0.373271 " style="fill:#ccc;stroke-width:0"/><text x="-0.60720818098644014" y="0.3433693097500029" font-size="0.050000000000000003" style="fill:darkgrey">23</text></g><g><polygon points="-0.612317,0.198061 -0.599495,0.170952 -0.584078,0.14523 -0.566215,0.121144 -0.546076,0.0989241 -0.523856,0.0787854 -0.49977,0.0609216 -0.474048,0.0455047 -0.446939,0.0326832 -0.403514,0.137523 -0.507477,0.241486 " style="fill:#eee;stroke:darkgrey;stroke-width:0.005"/><polyline points="-0.612317,0.198061 -0.599495,0.170952 -0.584078,0.14523 -0.566215,0.121144 -0.546076,0.0989241 -0.523856,0.0787854 -0.49977,0.0609216 -0.474048,0.0455047 -0.446939,0.0326832 " style="fill:#eee;stroke:black;stroke-width:0.010"/><polygon points="-0.583695,0.188268 -0.520792,0.214324 -0.54459,0.182818 " style="fill:#ccc;stroke-width:0"/><text x="-0.53432496302409349" y="0.16741365647591064" font-size="0.050000000000000003" style="fill:darkgrey">24</text></g><g><polygon points="-0.446939,0.0326832 -0.393297,0.0156938 -0.337778,0.00636481 -0.281624,0.00204461 -0.225319,0.000445667 -0.168991,4.17485e-05 -0.112661,3.66468e-08 -0.0563303,2.42861e-15 -1.33227e-15,2.38698e-15 -1.254e-15,0.094 -0.410967,0.119528 " style="fill:#eee;stroke:darkgrey;stroke-width:0.005"/><polyline points="-0.446939,0.0326832 -0.393297,0.0156938 -0.337778,0.00636481 -0.281624,0.00204461 -0.225319,0.000445667 -0.168991,4.17485e-05 -0.112661,3.66468e-08 -0.0563303,2.42861e-15 -1.33227e-15,2.38698e-15 " style="fill:#eee;stroke:black;stroke-width:0.010"/><polygon points="-0.421267,0.0423985 -0.399684,0.0945053 -0.391998,0.0607982 " style="fill:#ccc;stroke-width:0"/><text x="-0.24814308912402616" y="0.070940803291761639" font-size="0.050000000000000003" style="fill:darkgrey">25</text></g><g><polygon points="1.35277,-0.822297 1.29444,-0.763961 1.2361,-0.705624 1.17777,-0.647288 1.11943,-0.588952 1.06109,-0.530616 1.00276,-0.472279 0.94442,-0.413943 0.886084,-0.355607 0.819616,-0.422075 1.28631,-0.888765 " style="fill:#eee;stroke:darkgrey;stroke-width:0.005"/><polyline points="1.35277,-0.822297 1.29444,-0.763961 1.2361,-0.705624 1.17777,-0.647288 1.11943,-0.588952 1.06109,-0.530616 1.00276,-0.472279 0.94442,-0.413943 0.886084,-0.355607 " style="fill:#eee;stroke:black;stroke-width:0.010"/><polygon points="1.32534,-0.821449 1.28546,-0.861329 1.29126,-0.827247 " style="fill:#ccc;stroke-width:0"/><text x="1.0626950929411163" y="-0.59868585822512654" font-size="0.050000000000000003" style="fill:darkgrey">26</text></g><g><polygon points="0.886084,-0.355607 0.846252,-0.315775 0.806421,-0.275944 0.76656,-0.236142 0.726444,-0.196597 0.6855,-0.157914 0.642738,-0.121262 0.596884,-0.0886007 0.546939,-0.0626832 0.510967,-0.149528 0.819616,-0.422075 " style="fill:#eee;stroke:darkgrey;stroke-width:0.005"/><polyline points="0.886084,-0.355607 0.846252,-0.315775 0.806421,-0.275944 0.76656,-0.236142 0.726444,-0.196597 0.6855,-0.157914 0.642738,-0.121262 0.596884,-0.0886007 0.546939,-0.0626832 " style="fill:#eee;stroke:black;stroke-width:0.010"/><polygon points="0.858648,-0.354758 0.818767,-0.394639 0.824566,-0.360556 " style="fill:#ccc;stroke-width:0"/><text x="0.67019150848649156" y="-0.20680566376404627" font-size="0.050000000000000003" style="fill:darkgrey">27</text></g><g><polygon points="0.546939,-0.0626832 0.493297,-0.0456938 0.437778,-0.0363648 0.381624,-0.0320446 0.325319,-0.0304457 0.268991,-0.0300417 0.212661,-0.03 0.15633,-0.03 0.1,-0.03 0.1,-0.124 0.510967,-0.149528 " style="fill:#eee;stroke:darkgrey;stroke-width:0.005"/><polyline points="0.546939,-0.0626832 0.493297,-0.0456938 0.437778,-0.0363648 0.381624,-0.0320446 0.325319,-0.0304457 0.268991,-0.0300417 0.212661,-0.03 0.15633,-0.03 0.1,-0.03 " style="fill:#eee;stroke:black;stroke-width:0.010"/><polygon points="0.521267,-0.0723985 0.499684,-0.124505 0.491998,-0.0907982 " style="fill:#ccc;stroke-width:0"/><text x="0.30114308912402482" y="-0.053940803291759147" font-size="0.050000000000000003" style="fill:darkgrey">28</text></g><g><polygon points="1.14064,-0.567739 1.18047,-0.60757 1.22031,-0.647402 1.26017,-0.687204 1.30028,-0.726748 1.34123,-0.765431 1.38399,-0.802083 1.42984,-0.834745 1.47979,-0.860662 1.51576,-0.773817 1.20711,-0.501271 " style="fill:#eee;stroke:darkgrey;stroke-width:0.005"/><polyline points="1.14064,-0.567739 1.18047,-0.60757 1.22031,-0.647402 1.26017,-0.687204 1.30028,-0.726748 1.34123,-0.765431 1.38399,-0.802083 1.42984,-0.834745 1.47979,-0.860662 " style="fill:#eee;stroke:black;stroke-width:0.010"/><polygon points="1.16808,-0.568587 1.20796,-0.528706 1.20216,-0.562789 " style="fill:#ccc;stroke-width:0"/><text x="1.3095346804713126" y="-0.66953957402751441" font-size="0.050000000000000003" style="fill:darkgrey">29</text></g><g><polygon points="1.47979,-0.860662 1.53343,-0.877651 1.58895,-0.88698 1.6451,-0.891301 1.70141,-0.8929 1.75774,-0.893303 1.81407,-0.893345 1.8704,-0.893345 1.92673,-0.893345 1.92673,-0.799345 1.51576,-0.773817 " style="fill:#eee;stroke:darkgrey;stroke-width:0.005"/><polyline points="1.47979,-0.860662 1.53343,-0.877651 1.58895,-0.88698 1.6451,-0.891301 1.70141,-0.8929 1.75774,-0.893303 1.81407,-0.893345 1.8704,-0.893345 1.92673,-0.893345 " style="fill:#eee;stroke:black;stroke-width:0.010"/><polygon points="1.50546,-0.850947 1.52704,-0.79884 1.53473,-0.832547 " style="fill:#ccc;stroke-width:0"/><text x="1.678583099833779" y="-0.8224044344998015" font-size="0.050000000000000003" style="fill:darkgrey">30</text></g><g><polygon points="1.92673,-0.893345 2.00923,-0.893345 2.09173,-0.893345 2.17423,-0.893345 2.25673,-0.893345 2.33923,-0.893345 2.42173,-0.893345 2.50423,-0.893345 2.58673,-0.893345 2.58673,-0.799345 1.92673,-0.799345 " style="fill:#eee;stroke:darkgrey;stroke-width:0.005"/><polyline points="1.92673,-0.893345 2.00923,-0.893345 2.09173,-0.893345 2.17423,-0.893345 2.25673,-0.893345 2.33923,-0.893345 2.42173,-0.893345 2.50423,-0.893345 2.58673,-0.893345 " style="fill:#eee;stroke:black;stroke-width:0.010"/><polygon points="1.94673,-0.874545 1.94673,-0.818145 1.96673,-0.846345 " style="fill:#ccc;stroke-width:0"/><text x="2.2332261889578042" y="-0.82284523779156049" font-size="0.050000000000000003" style="fill:darkgrey">31</text></g><g><polygon points="2.58673,-0.893345 2.64306,-0.893345 2.69939,-0.893345 2.75572,-0.893303 2.81205,-0.8929 2.86835,-0.891301 2.9245,-0.88698 2.98002,-0.877651 3.03367,-0.860662 2.99769,-0.773817 2.58673,-0.799345 " style="fill:#eee;stroke:darkgrey;stroke-width:0.005"/><polyline points="2.58673,-0.893345 2.64306,-0.893345 2.69939,-0.893345 2.75572,-0.893303 2.81205,-0.8929 2.86835,-0.891301 2.9245,-0.88698 2.98002,-0.877651 3.03367,-0.860662 " style="fill:#eee;stroke:black;stroke-width:0.010"/><polygon points="2.60673,-0.874545 2.60673,-0.818145 2.62673,-0.846345 " style="fill:#ccc;stroke-width:0"/><text x="2.7878692780818293" y="-0.82240443449980127" font-size="0.050000000000000003" style="fill:darkgrey">32</text></g><g><polygon points="3.03367,-0.860662 3.08361,-0.834745 3.12946,-0.802083 3.17223,-0.765431 3.21317,-0.726748 3.25329,-0.687204 3.29315,-0.647402 3.33298,-0.60757 3.37281,-0.567739 3.30634,-0.501271 2.99769,-0.773817 " style="fill:#eee;stroke:darkgrey;stroke-width:0.005"/><polyline points="3.03367,-0.860662 3.08361,-0.834745 3.12946,-0.802083 3.17223,-0.765431 3.21317,-0.726748 3.25329,-0.687204 3.29315,-0.647402 3.33298,-0.60757 3.37281,-0.567739 " style="fill:#eee;stroke:black;stroke-width:0.010"/><polygon points="3.04495,-0.835639 3.02337,-0.783533 3.05263,-0.801932 " style="fill:#ccc;stroke-width:0"/><text x="3.1569176974442956" y="-0.66953957402751407" font-size="0.050000000000000003" style="fill:darkgrey">33</text></g><g><polygon points="4.41345,-0.03 4.35712,-0.03 4.30079,-0.03 4.24446,-0.0300417 4.18813,-0.0304457 4.13183,-0.0320446 4.07567,-0.0363648 4.02016,-0.0456938 3.96651,-0.0626832 4.00249,-0.149528 4.41345,-0.124 " style="fill:#eee;stroke:darkgrey;stroke-width:0.005"/><polyline points="4.41345,-0.03 4.35712,-0.03 4.30079,-0.03 4.24446,-0.0300417 4.18813,-0.0304457 4.13183,-0.0320446 4.07567,-0.0363648 4.02016,-0.0456938 3.96651,-0.0626832 " style="fill:#eee;stroke:black;stroke-width:0.010"/><polygon points="4.39345,-0.0488 4.39345,-0.1052 4.37345,-0.077 " style="fill:#ccc;stroke-width:0"/><text x="4.1653092887915824" y="-0.053940803291758523" font-size="0.050000000000000003" style="fill:darkgrey">34</text></g><g><polygon points="3.96651,-0.0626832 3.91657,-0.0886007 3.87071,-0.121262 3.82795,-0.157914 3.78701,-0.196597 3.74689,-0.236142 3.70703,-0.275944 3.6672,-0.315775 3.62737,-0.355607 3.69384,-0.422075 4.00249,-0.149528 " style="fill:#eee;stroke:darkgrey;stroke-width:0.005"/><polyline points="3.96651,-0.0626832 3.91657,-0.0886007 3.87071,-0.121262 3.82795,-0.157914 3.78701,-0.196597 3.74689,-0.236142 3.70703,-0.275944 3.6672,-0.315775 3.62737,-0.355607 " style="fill:#eee;stroke:black;stroke-width:0.010"/><polygon points="3.95523,-0.0877058 3.97681,-0.139813 3.94754,-0.121413 " style="fill:#ccc;stroke-width:0"/><text x="3.7962608694291164" y="-0.20680566376404577" font-size="0.050000000000000003" style="fill:darkgrey">35</text></g><g><polygon points="3.62737,-0.355607 3.56903,-0.413943 3.5107,-0.472279 3.45236,-0.530616 3.39402,-0.588952 3.33569,-0.647288 3.27735,-0.705624 3.21901,-0.763961 3.16068,-0.822297 3.22715,-0.888765 3.69384,-0.422075 " style="fill:#eee;stroke:darkgrey;stroke-width:0.005"/><polyline points="3.62737,-0.355607 3.56903,-0.413943 3.5107,-0.472279 3.45236,-0.530616 3.39402,-0.588952 3.33569,-0.647288 3.27735,-0.705624 3.21901,-0.763961 3.16068,-0.822297 " style="fill:#eee;stroke:black;stroke-width:0.010"/><polygon points="3.62652,-0.383042 3.6664,-0.422923 3.63232,-0.417125 " style="fill:#ccc;stroke-width:0"/><text x="3.4037572849744917" y="-0.59868585822512621" font-size="0.050000000000000003" style="fill:darkgrey">36</text></g></g><g><g><polyline points="0.66,-0.015 0.685385,-0.015 0.710769,-0.015 0.736154,-0.015 0.761538,-0.015 0.786923,-0.015 0.812308,-0.015 0.837692,-0.015 0.863077,-0.015 0.888462,-0.015 0.913846,-0.015 0.939231,-0.015 0.964615,-0.015 0.99,-0.015 1.01538,-0.015 1.04077,-0.015 1.06615,-0.015 1.09154,-0.015 1.11692,-0.015 1.14231,-0.015 1.16769,-0.015 1.19308,-0.015 1.21846,-0.015 1.24385,-0.015 1.26923,-0.015 1.29462,-0.015 1.32,-0.015 " stroke-width="0.0050000000000000001" style="stroke:pink;fill:none"/><rect x="0.65500000000000003" y="-0.019999999999999917" width="0.01" height="0.01" style="fill:red;stroke-width:0"/><rect x="1.3150000000000002" y="-0.019999999999999837" width="0.01" height="0.01" style="fill:red;stroke-width:0"/></g><g><polyline points="1.32,-0.015 1.34538,-0.015 1.37077,-0.015 1.39615,-0.015 1.42154,-0.015 1.44692,-0.015 1.47231,-0.015 1.49769,-0.015 1.52308,-0.015 1.54846,-0.015 1.57385,-0.015 1.59923,-0.015 1.62462,-0.015 1.65,-0.015 1.67538,-0.015 1.70077,-0.015 1.72615,-0.015 1.75154,-0.015 1.77692,-0.015 1.80231,-0.015 1.82769,-0.015 1.85308,-0.015 1.87846,-0.015 1.90385,-0.015 1.92923,-0.015 1.95462,-0.015 1.98,-0.015 " stroke-width="0.0050000000000000001" style="stroke:pink;fill:none"/><rect x="1.3150000000000002" y="-0.019999999999999837" width="0.01" height="0.01" style="fill:red;stroke-width:0"/><rect x="1.9750000000000001" y="-0.019999999999999758" width="0.01" height="0.01" style="fill:red;stroke-width:0"/></g><g><polyline points="1.98,-0.015 2.00538,-0.015 2.03077,-0.015 2.05615,-0.015 2.08154,-0.015 2.10692,-0.015 2.13231,-0.015 2.15769,-0.015 2.18308,-0.015 2.20846,-0.015 2.23385,-0.015 2.25923,-0.015 2.28462,-0.015 2.31,-0.015 2.33538,-0.015 2.36077,-0.015 2.38615,-0.015 2.41154,-0.015 2.43692,-0.015 2.46231,-0.015 2.48769,-0.015 2.51308,-0.015 2.53846,-0.015 2.56385,-0.015 2.58923,-0.015 2.61462,-0.015 2.64,-0.015 " stroke-width="0.0050000000000000001" style="stroke:pink;fill:none"/><rect x="1.9750000000000001" y="-0.019999999999999758" width="0.01" height="0.01" style="fill:red;stroke-width:0"/><rect x="2.6350000000000002" y="-0.019999999999999678" width="0.01" height="0.01" style="fill:red;stroke-width:0"/></g><g><polyline points="2.64,-0.015 2.66538,-0.015 2.69077,-0.015 2.71615,-0.015 2.74154,-0.015 2.76692,-0.015 2.79231,-0.015 2.81769,-0.015 2.84308,-0.015 2.86846,-0.015 2.89385,-0.015 2.91923,-0.015 2.94462,-0.015 2.97,-0.015 2.99538,-0.015 3.02077,-0.015 3.04615,-0.015 3.07154,-0.015 3.09692,-0.015 3.12231,-0.015 3.14769,-0.015 3.17308,-0.015 3.19846,-0.015 3.22385,-0.015 3.24923,-0.015 3.27462,-0.015 3.3,-0.015 " stroke-width="0.0050000000000000001" style="stroke:pink;fill:none"/><rect x="2.6350000000000002" y="-0.019999999999999678" width="0.01" height="0.01" style="fill:red;stroke-width:0"/><rect x="3.2950000000000004" y="-0.019999999999999594" width="0.01" height="0.01" style="fill:red;stroke-width:0"/></g><g><polyline points="3.3,-0.015 3.32538,-0.015 3.35077,-0.015 3.37615,-0.015 3.40154,-0.015 3.42692,-0.015 3.45231,-0.015 3.47769,-0.015 3.50308,-0.015 3.52846,-0.015 3.55385,-0.015 3.57923,-0.015 3.60462,-0.015 3.63,-0.015 3.65538,-0.015 3.68077,-0.015 3.70615,-0.015 3.73154,-0.015 3.75692,-0.015 3.78231,-0.015 3.80769,-0.015 3.83308,-0.015 3.85846,-0.015 3.88385,-0.015 3.90923,-0.015 3.93462,-0.015 3.96,-0.015 " stroke-width="0.0050000000000000001" style="stroke:pink;fill:none"/><rect x="3.2950000000000004" y="-0.019999999999999594" width="0.01" height="0.01" style="fill:red;stroke-width:0"/><rect x="3.9550000000000005" y="-0.019999999999999515" width="0.01" height="0.01" style="fill:red;stroke-width:0"/></g><g><polyline points="4.62,-0.015 4.64538,-0.015 4.67077,-0.015 4.69615,-0.015 4.72154,-0.015 4.74692,-0.015 4.77231,-0.015 4.79769,-0.015 4.82308,-0.015 4.84846,-0.015 4.87385,-0.015 4.89923,-0.015 4.92462,-0.015 4.95,-0.015 4.97538,-0.015 5.00077,-0.015 5.02615,-0.015 5.05154,-0.015 5.07692,-0.015 5.10231,-0.015 5.12769,-0.015 5.15308,-0.015 5.17846,-0.015 5.20385,-0.015 5.22923,-0.015 5.25462,-0.015 5.28,-0.015 " stroke-width="0.0050000000000000001" style="stroke:pink;fill:none"/><rect x="4.6150000000000002" y="-0.019999999999999435" width="0.01" height="0.01" style="fill:red;stroke-width:0"/><rect x="5.2750000000000004" y="-0.019999999999999352" width="0.01" height="0.01" style="fill:red;stroke-width:0"/></g><g><polyline points="5.28,-0.015 5.30625,-0.015 5.3325,-0.015 5.35875,-0.015 5.385,-0.015 " stroke-width="0.0050000000000000001" style="stroke:pink;fill:none"/><rect x="5.2750000000000004" y="-0.019999999999999352" width="0.01" height="0.01" style="fill:red;stroke-width:0"/><rect x="5.3800000000000008" y="-0.019999999999999341" width="0.01" height="0.01" style="fill:red;stroke-width:0"/></g><g><polyline points="5.385,-0.015 5.41159,-0.014998 5.4382,-0.0149785 5.46483,-0.0149062 5.4915,-0.0147224 5.51823,-0.0143393 5.54502,-0.0136353 5.5719,-0.0124499 5.59887,-0.0105791 5.6259,-0.0077732 5.65293,-0.00374117 5.67988,0.00183544 5.70654,0.00927084 5.73268,0.018825 " stroke-width="0.0050000000000000001" style="stroke:pink;fill:none"/><rect x="5.3800000000000008" y="-0.019999999999999341" width="0.01" height="0.01" style="fill:red;stroke-width:0"/><rect x="5.7276796944940083" y="0.013825017724778066" width="0.01" height="0.01" style="fill:red;stroke-width:0"/></g><g><polyline points="5.73268,0.018825 5.75803,0.0306443 5.78225,0.0446277 5.80516,0.0606688 5.82658,0.0786455 5.84635,0.098421 5.86433,0.119845 5.88037,0.142754 5.89436,0.166974 5.90617,0.19232 " stroke-width="0.0050000000000000001" style="stroke:pink;fill:none"/><rect x="5.7276796944940083" y="0.013825017724778066" width="0.01" height="0.01" style="fill:red;stroke-width:0"/><rect x="5.9011749822752231" y="0.18732030550599243" width="0.01" height="0.01" style="fill:red;stroke-width:0"/></g><g><polyline points="5.90617,0.19232 5.91574,0.2186 5.92298,0.245614 5.92783,0.273156 5.93027,0.301017 5.93027,0.328983 5.92783,0.356844 5.92298,0.384386 5.91574,0.4114 5.90617,0.43768 " stroke-width="0.0050000000000000001" style="stroke:pink;fill:none"/><rect x="5.9011749822752231" y="0.18732030550599243" width="0.01" height="0.01" style="fill:red;stroke-width:0"/><rect x="5.9011749822752231" y="0.43267969449400895" width="0.01" height="0.01" style="fill:red;stroke-width:0"/></g><g><polyline points="5.90617,0.43768 5.89436,0.463026 5.88037,0.487246 5.86433,0.510155 5.84635,0.531579 5.82658,0.551355 5.80516,0.569331 5.78225,0.585372 5.75803,0.599356 5.73268,0.611175 " stroke-width="0.0050000000000000001" style="stroke:pink;fill:none"/><rect x="5.9011749822752231" y="0.43267969449400895" width="0.01" height="0.01" style="fill:red;stroke-width:0"/><rect x="5.7276796944940083" y="0.60617498227522337" width="0.01" height="0.01" style="fill:red;stroke-width:0"/></g><g><polyline points="5.73268,0.611175 5.70654,0.620729 5.67988,0.628165 5.65293,0.633741 5.6259,0.637773 5.59887,0.640579 5.5719,0.64245 5.54502,0.643635 5.51823,0.644339 5.4915,0.644722 5.46483,0.644906 5.4382,0.644978 5.41159,0.644998 5.385,0.645 " stroke-width="0.0050000000000000001" style="stroke:pink;fill:none"/><rect x="5.7276796944940083" y="0.60617498227522337" width="0.01" height="0.01" style="fill:red;stroke-width:0"/><rect x="5.3799999999999999" y="0.6400000000000009" width="0.01" height="0.01" style="fill:red;stroke-width:0"/></g><g><polyline points="5.385,0.645 5.35875,0.645 5.3325,0.645 5.30625,0.645 5.28,0.645 " stroke-width="0.0050000000000000001" style="stroke:pink;fill:none"/><rect x="5.3799999999999999" y="0.6400000000000009" width="0.01" height="0.01" style="fill:red;stroke-width:0"/><rect x="5.2750000000000004" y="0.6400000000000009" width="0.01" height="0.01" style="fill:red;stroke-width:0"/></g><g><polyline points="5.28,0.645 5.25462,0.645 5.22923,0.645 5.20385,0.645 5.17846,0.645 5.15308,0.645 5.12769,0.645 5.10231,0.645 5.07692,0.645 5.05154,0.645 5.02615,0.645 5.00077,0.645 4.97538,0.645 4.95,0.645 4.92462,0.645 4.89923,0.645 4.87385,0.645 4.84846,0.645 4.82308,0.645 4.79769,0.645 4.77231,0.645 4.74692,0.645 4.72154,0.645 4.69615,0.645 4.67077,0.645 4.64538,0.645 4.62,0.645 " stroke-width="0.0050000000000000001" style="stroke:pink;fill:none"/><rect x="5.2750000000000004" y="0.6400000000000009" width="0.01" height="0.01" style="fill:red;stroke-width:0"/><rect x="4.6150000000000002" y="0.64000000000000112" width="0.01" height="0.01" style="fill:red;stroke-width:0"/></g><g><polyline points="4.62,0.645 4.59462,0.645 4.56923,0.645 4.54385,0.645 4.51846,0.645 4.49308,0.645 4.46769,0.645 4.44231,0.645 4.41692,0.645 4.39154,0.645 4.36615,0.645 4.34077,0.645 4.31538,0.645 4.29,0.645 4.26462,0.645 4.23923,0.645 4.21385,0.645 4.18846,0.645 4.16308,0.645 4.13769,0.645 4.11231,0.645 4.08692,0.645 4.06154,0.645 4.03615,0.645 4.01077,0.645 3.98538,0.645 3.96,0.645 " stroke-width="0.0050000000000000001" style="stroke:pink;fill:none"/><rect x="4.6150000000000002" y="0.64000000000000112" width="0.01" height="0.01" style="fill:red;stroke-width:0"/><rect x="3.9550000000000001" y="0.64000000000000135" width="0.01" height="0.01" style="fill:red;stroke-width:0"/></g><g><polyline points="3.96,0.645 3.93462,0.645 3.90923,0.645 3.88385,0.645 3.85846,0.645 3.83308,0.645 3.80769,0.645 3.78231,0.645 3.75692,0.645 3.73154,0.645 3.70615,0.645 3.68077,0.645 3.65538,0.645 3.63,0.645 3.60462,0.645 3.57923,0.645 3.55385,0.645 3.52846,0.645 3.50308,0.645 3.47769,0.645 3.45231,0.645 3.42692,0.645 3.40154,0.645 3.37615,0.645 3.35077,0.645 3.32538,0.645 3.3,0.645 " stroke-width="0.0050000000000000001" style="stroke:pink;fill:none"/><rect x="3.9550000000000001" y="0.64000000000000135" width="0.01" height="0.01" style="fill:red;stroke-width:0"/><rect x="3.2949999999999999" y="0.64000000000000157" width="0.01" height="0.01" style="fill:red;stroke-width:0"/></g><g><polyline points="3.3,0.645 3.27462,0.645 3.24923,0.645 3.22385,0.645 3.19846,0.645 3.17308,0.645 3.14769,0.645 3.12231,0.645 3.09692,0.645 3.07154,0.645 3.04615,0.645 3.02077,0.645 2.99538,0.645 2.97,0.645 2.94462,0.645 2.91923,0.645 2.89385,0.645 2.86846,0.645 2.84308,0.645 2.81769,0.645 2.79231,0.645 2.76692,0.645 2.74154,0.645 2.71615,0.645 2.69077,0.645 2.66538,0.645 2.64,0.645 " stroke-width="0.0050000000000000001" style="stroke:pink;fill:none"/><rect x="3.2949999999999999" y="0.64000000000000157" width="0.01" height="0.01" style="fill:red;stroke-width:0"/><rect x="2.6349999999999998" y="0.6400000000000019" width="0.01" height="0.01" style="fill:red;stroke-width:0"/></g><g><polyline points="2.64,0.645 2.61462,0.645 2.58923,0.645 2.56385,0.645 2.53846,0.645 2.51308,0.645 2.48769,0.645 2.46231,0.645 2.43692,0.645 2.41154,0.645 2.38615,0.645 2.36077,0.645 2.33538,0.645 2.31,0.645 2.28462,0.645 2.25923,0.645 2.23385,0.645 2.20846,0.645 2.18308,0.645 2.15769,0.645 2.13231,0.645 2.10692,0.645 2.08154,0.645 2.05615,0.645 2.03077,0.645 2.00538,0.645 1.98,0.645 " stroke-width="0.0050000000000000001" style="stroke:pink;fill:none"/><rect x="2.6349999999999998" y="0.6400000000000019" width="0.01" height="0.01" style="fill:red;stroke-width:0"/><rect x="1.9749999999999996" y="0.64000000000000212" width="0.01" height="0.01" style="fill:red;stroke-width:0"/></g><g><polyline points="1.98,0.645 1.95462,0.645 1.92923,0.645 1.90385,0.645 1.87846,0.645 1.85308,0.645 1.82769,0.645 1.80231,0.645 1.77692,0.645 1.75154,0.645 1.72615,0.645 1.70077,0.645 1.67538,0.645 1.65,0.645 1.62462,0.645 1.59923,0.645 1.57385,0.645 1.54846,0.645 1.52308,0.645 1.49769,0.645 1.47231,0.645 1.44692,0.645 1.42154,0.645 1.39615,0.645 1.37077,0.645 1.34538,0.645 1.32,0.645 " stroke-width="0.0050000000000000001" style="stroke:pink;fill:none"/><rect x="1.9749999999999996" y="0.64000000000000212" width="0.01" height="0.01" style="fill:red;stroke-width:0"/><rect x="1.3149999999999995" y="0.64000000000000234" width="0.01" height="0.01" style="fill:red;stroke-width:0"/></g><g><polyline points="1.32,0.645 1.29462,0.645 1.26923,0.645 1.24385,0.645 1.21846,0.645 1.19308,0.645 1.16769,0.645 1.14231,0.645 1.11692,0.645 1.09154,0.645 1.06615,0.645 1.04077,0.645 1.01538,0.645 0.99,0.645 0.964615,0.645 0.939231,0.645 0.913846,0.645 0.888462,0.645 0.863077,0.645 0.837692,0.645 0.812308,0.645 0.786923,0.645 0.761538,0.645 0.736154,0.645 0.710769,0.645 0.685385,0.645 0.66,0.645 " stroke-width="0.0050000000000000001" style="stroke:pink;fill:none"/><rect x="1.3149999999999995" y="0.64000000000000234" width="0.01" height="0.01" style="fill:red;stroke-width:0"/><rect x="0.65499999999999925" y="0.64000000000000268" width="0.01" height="0.01" style="fill:red;stroke-width:0"/></g><g><polyline points="0.66,0.645 0.634615,0.645 0.609231,0.645 0.583846,0.645 0.558462,0.645 0.533077,0.645 0.507692,0.645 0.482308,0.645 0.456923,0.645 0.431538,0.645 0.406154,0.645 0.380769,0.645 0.355385,0.645 0.33,0.645 0.304615,0.645 0.279231,0.645 0.253846,0.645 0.228462,0.645 0.203077,0.645 0.177692,0.645 0.152308,0.645 0.126923,0.645 0.101538,0.645 0.0761538,0.645 0.0507692,0.645 0.0253846,0.645 -9.94376e-16,0.645 " stroke-width="0.0050000000000000001" style="stroke:pink;fill:none"/><rect x="0.65499999999999925" y="0.64000000000000268" width="0.01" height="0.01" style="fill:red;stroke-width:0"/><rect x="-0.0050000000000009776" y="0.6400000000000029" width="0.01" height="0.01" style="fill:red;stroke-width:0"/></g><g><polyline points="-9.60507e-16,0.645 -0.02625,0.645 -0.0525,0.645 -0.07875,0.645 -0.105,0.645 " stroke-width="0.0050000000000000001" style="stroke:pink;fill:none"/><rect x="-0.0050000000000009776" y="0.6400000000000029" width="0.01" height="0.01" style="fill:red;stroke-width:0"/><rect x="-0.110000000000001" y="0.6400000000000029" width="0.01" height="0.01" style="fill:red;stroke-width:0"/></g><g><polyline points="-0.105,0.645 -0.131592,0.644998 -0.158197,0.644978 -0.184829,0.644906 -0.2115,0.644722 -0.238227,0.644339 -0.265025,0.643635 -0.291905,0.64245 -0.318868,0.640579 -0.345896,0.637773 -0.372934,0.633741 -0.399876,0.628165 -0.426543,0.620729 -0.45268,0.611175 " stroke-width="0.0050000000000000001" style="stroke:pink;fill:none"/><rect x="-0.110000000000001" y="0.6400000000000029" width="0.01" height="0.01" style="fill:red;stroke-width:0"/><rect x="-0.45767969449400936" y="0.6061749822752257" width="0.01" height="0.01" style="fill:red;stroke-width:0"/></g><g><polyline points="-0.45268,0.611175 -0.478026,0.599356 -0.502246,0.585372 -0.525155,0.569331 -0.546579,0.551355 -0.566355,0.531579 -0.584331,0.510155 -0.600372,0.487246 -0.614356,0.463026 -0.626175,0.43768 " stroke-width="0.0050000000000000001" style="stroke:pink;fill:none"/><rect x="-0.45767969449400936" y="0.6061749822752257" width="0.01" height="0.01" style="fill:red;stroke-width:0"/><rect x="-0.63117498227522384" y="0.43267969449401134" width="0.01" height="0.01" style="fill:red;stroke-width:0"/></g><g><polyline points="-0.626175,0.43768 -0.63574,0.4114 -0.642979,0.384386 -0.647835,0.356844 -0.650272,0.328983 -0.650272,0.301017 -0.647835,0.273156 -0.642979,0.245614 -0.63574,0.2186 -0.626175,0.19232 " stroke-width="0.0050000000000000001" style="stroke:pink;fill:none"/><rect x="-0.63117498227522384" y="0.43267969449401134" width="0.01" height="0.01" style="fill:red;stroke-width:0"/><rect x="-0.63117498227522406" y="0.18732030550599471" width="0.01" height="0.01" style="fill:red;stroke-width:0"/></g><g><polyline points="-0.626175,0.19232 -0.614356,0.166974 -0.600372,0.142754 -0.584331,0.119845 -0.566355,0.098421 -0.546579,0.0786455 -0.525155,0.0606688 -0.502246,0.0446277 -0.478026,0.0306443 -0.45268,0.018825 " stroke-width="0.0050000000000000001" style="stroke:pink;fill:none"/><rect x="-0.63117498227522406" y="0.18732030550599471" width="0.01" height="0.01" style="fill:red;stroke-width:0"/><rect x="-0.45767969449400969" y="0.013825017724780137" width="0.01" height="0.01" style="fill:red;stroke-width:0"/></g><g><polyline points="-0.45268,0.018825 -0.426543,0.00927084 -0.399876,0.00183544 -0.372934,-0.00374117 -0.345896,-0.0077732 -0.318868,-0.0105791 -0.291905,-0.0124499 -0.265025,-0.0136353 -0.238227,-0.0143393 -0.2115,-0.0147224 -0.184829,-0.0149062 -0.158197,-0.0149785 -0.131592,-0.014998 -0.105,-0.015 " stroke-width="0.0050000000000000001" style="stroke:pink;fill:none"/><rect x="-0.45767969449400969" y="0.013825017724780137" width="0.01" height="0.01" style="fill:red;stroke-width:0"/><rect x="-0.11000000000000139" y="-0.019999999999997523" width="0.01" height="0.01" style="fill:red;stroke-width:0"/></g><g><polyline points="-1.34476e-15,-0.015 -0.02625,-0.015 -0.0525,-0.015 -0.07875,-0.015 -0.105,-0.015 " stroke-width="0.0050000000000000001" style="stroke:pink;fill:none"/><rect x="-0.0050000000000006714" y="-0.01999999999999881" width="0.01" height="0.01" style="fill:red;stroke-width:0"/><rect x="-0.11000000000000139" y="-0.019999999999997523" width="0.01" height="0.01" style="fill:red;stroke-width:0"/></g><g><polyline points="0.89669,-0.345 0.878129,-0.326438 0.859567,-0.307877 0.841006,-0.289315 0.822444,-0.270754 " stroke-width="0.0050000000000000001" style="stroke:pink;fill:none"/><rect x="0.89169047558312164" y="-0.34999999999999998" width="0.01" height="0.01" style="fill:red;stroke-width:0"/><rect x="0.81744426355853417" y="-0.2757537879754125" width="0.01" height="0.01" style="fill:red;stroke-width:0"/></g><g><polyline points="0.822444,-0.270754 0.80364,-0.251952 0.784813,-0.233153 0.765931,-0.214373 0.746941,-0.195643 0.727771,-0.177015 0.708325,-0.158564 0.68848,-0.140395 0.668091,-0.122653 0.646995,-0.105525 0.625025,-0.0892569 0.602031,-0.0741494 0.577917,-0.0605507 0.55268,-0.048825 " stroke-width="0.0050000000000000001" style="stroke:pink;fill:none"/><rect x="0.81744426355853417" y="-0.2757537879754125" width="0.01" height="0.01" style="fill:red;stroke-width:0"/><rect x="0.54767969449400833" y="-0.053825017724777449" width="0.01" height="0.01" style="fill:red;stroke-width:0"/></g><g><polyline points="0.55268,-0.048825 0.526543,-0.0392708 0.499876,-0.0318354 0.472934,-0.0262588 0.445896,-0.0222268 0.418868,-0.0194209 0.391905,-0.0175501 0.365025,-0.0163647 0.338227,-0.0156607 0.3115,-0.0152776 0.284829,-0.0150938 0.258197,-0.0150215 0.231592,-0.015002 0.205,-0.015 " stroke-width="0.0050000000000000001" style="stroke:pink;fill:none"/><rect x="0.54767969449400833" y="-0.053825017724777449" width="0.01" height="0.01" style="fill:red;stroke-width:0"/><rect x="0.19999999999999998" y="-0.020000000000000056" width="0.01" height="0.01" style="fill:red;stroke-width:0"/></g><g><polyline points="0.205,-0.015 0.17875,-0.015 0.1525,-0.015 0.12625,-0.015 0.1,-0.015 " stroke-width="0.014999999999999999" style="stroke:pink;fill:none"/><rect x="0.19999999999999998" y="-0.020000000000000056" width="0.01" height="0.01" style="fill:red;stroke-width:0"/><rect x="0.095000000000000029" y="-0.020000000000000025" width="0.01" height="0.01" style="fill:red;stroke-width:0"/></g><g><polyline points="0.66,-0.015 0.634722,-0.015 0.609444,-0.015 0.584167,-0.015 0.558889,-0.015 0.533611,-0.015 0.508333,-0.015 0.483056,-0.015 0.457778,-0.015 0.4325,-0.015 0.407222,-0.015 0.381944,-0.015 0.356667,-0.015 0.331389,-0.015 0.306111,-0.015 0.280833,-0.015 0.255556,-0.015 0.230278,-0.015 0.205,-0.015 " stroke-width="0.0050000000000000001" style="stroke:pink;fill:none"/><rect x="0.65500000000000003" y="-0.019999999999999917" width="0.01" height="0.01" style="fill:red;stroke-width:0"/><rect x="0.19999999999999998" y="-0.020000000000000056" width="0.01" height="0.01" style="fill:red;stroke-width:0"/></g><g><polyline points="1.83697e-18,-0.015 0.025,-0.015 0.05,-0.015 0.075,-0.015 0.1,-0.015 " stroke-width="0.0050000000000000001" style="stroke:pink;fill:none"/><rect x="-0.0050000000000006714" y="-0.01999999999999881" width="0.01" height="0.01" style="fill:red;stroke-width:0"/><rect x="0.095000000000000029" y="-0.020000000000000025" width="0.01" height="0.01" style="fill:red;stroke-width:0"/></g><g><polyline points="1.13004,-0.578345 1.1486,-0.596907 1.16716,-0.615468 1.18572,-0.63403 1.20428,-0.652591 " stroke-width="0.014999999999999999" style="stroke:pink;fill:none"/><rect x="1.1250357133746827" y="-0.58334523779156067" width="0.01" height="0.01" style="fill:red;stroke-width:0"/><rect x="1.1992819253992701" y="-0.65759144981614814" width="0.01" height="0.01" style="fill:red;stroke-width:0"/></g><g><polyline points="1.20428,-0.652591 1.22309,-0.671393 1.24191,-0.690192 1.2608,-0.708973 1.27979,-0.727702 1.29895,-0.74633 1.3184,-0.764781 1.33825,-0.78295 1.35864,-0.800693 1.37973,-0.81782 1.4017,-0.834088 1.4247,-0.849196 1.44881,-0.862794 1.47405,-0.87452 " stroke-width="0.0050000000000000001" style="stroke:pink;fill:none"/><rect x="1.1992819253992701" y="-0.65759144981614814" width="0.01" height="0.01" style="fill:red;stroke-width:0"/><rect x="1.4690464944637958" y="-0.87952022006678321" width="0.01" height="0.01" style="fill:red;stroke-width:0"/></g><g><polyline points="0.89669,-0.345 0.91464,-0.36295 0.93259,-0.380899 0.950539,-0.398849 0.968489,-0.416799 0.986439,-0.434748 1.00439,-0.452698 1.02234,-0.470647 1.04029,-0.488597 1.05824,-0.506547 1.07619,-0.524496 1.09414,-0.542446 1.11209,-0.560396 1.13004,-0.578345 " stroke-width="0.0050000000000000001" style="stroke:pink;fill:none"/><rect x="0.89169047558312164" y="-0.34999999999999998" width="0.01" height="0.01" style="fill:red;stroke-width:0"/><rect x="1.1250357133746827" y="-0.58334523779156067" width="0.01" height="0.01" style="fill:red;stroke-width:0"/></g><g><polyline points="1.36338,-0.81169 1.34349,-0.791803 1.32361,-0.771916 1.30372,-0.752028 1.28383,-0.732141 1.26394,-0.712254 1.24406,-0.692366 1.22417,-0.672479 1.20428,-0.652591 " stroke-width="0.0050000000000000001" style="stroke:pink;fill:none"/><rect x="1.3583809511662432" y="-0.81669047558312113" width="0.01" height="0.01" style="fill:red;stroke-width:0"/><rect x="1.1992819253992701" y="-0.65759144981614814" width="0.01" height="0.01" style="fill:red;stroke-width:0"/></g><g><polyline points="1.47405,-0.87452 1.50018,-0.884074 1.52685,-0.89151 1.55379,-0.897086 1.58083,-0.901118 1.60786,-0.903924 1.63482,-0.905795 1.6617,-0.906981 1.6885,-0.907685 1.71523,-0.908068 1.7419,-0.908251 1.76853,-0.908324 1.79513,-0.908343 1.82173,-0.908345 " stroke-width="0.0050000000000000001" style="stroke:pink;fill:none"/><rect x="1.4690464944637958" y="-0.87952022006678321" width="0.01" height="0.01" style="fill:red;stroke-width:0"/><rect x="1.8167261889578041" y="-0.91334523779156052" width="0.01" height="0.01" style="fill:red;stroke-width:0"/></g><g><polyline points="1.82173,-0.908345 1.84798,-0.908345 1.87423,-0.908345 1.90048,-0.908345 1.92673,-0.908345 " stroke-width="0.0050000000000000001" style="stroke:pink;fill:none"/><rect x="1.8167261889578041" y="-0.91334523779156052" width="0.01" height="0.01" style="fill:red;stroke-width:0"/><rect x="1.9217261889578041" y="-0.91334523779156052" width="0.01" height="0.01" style="fill:red;stroke-width:0"/></g><g><polyline points="1.92673,-0.908345 1.95211,-0.908345 1.9775,-0.908345 2.00288,-0.908345 2.02826,-0.908345 2.05365,-0.908345 2.07903,-0.908345 2.10442,-0.908345 2.1298,-0.908345 2.15519,-0.908345 2.18057,-0.908345 2.20596,-0.908345 2.23134,-0.908345 2.25673,-0.908345 2.28211,-0.908345 2.3075,-0.908345 2.33288,-0.908345 2.35826,-0.908345 2.38365,-0.908345 2.40903,-0.908345 2.43442,-0.908345 2.4598,-0.908345 2.48519,-0.908345 2.51057,-0.908345 2.53596,-0.908345 2.56134,-0.908345 2.58673,-0.908345 " stroke-width="0.0050000000000000001" style="stroke:pink;fill:none"/><rect x="1.9217261889578041" y="-0.91334523779156052" width="0.01" height="0.01" style="fill:red;stroke-width:0"/><rect x="2.5817261889578043" y="-0.9133452377915604" width="0.01" height="0.01" style="fill:red;stroke-width:0"/></g><g><polyline points="2.58673,-0.908345 2.61298,-0.908345 2.63923,-0.908345 2.66548,-0.908345 2.69173,-0.908345 " stroke-width="0.0050000000000000001" style="stroke:pink;fill:none"/><rect x="2.5817261889578043" y="-0.9133452377915604" width="0.01" height="0.01" style="fill:red;stroke-width:0"/><rect x="2.6867261889578042" y="-0.9133452377915604" width="0.01" height="0.01" style="fill:red;stroke-width:0"/></g><g><polyline points="2.69173,-0.908345 2.71832,-0.908343 2.74492,-0.908324 2.77155,-0.908251 2.79823,-0.908068 2.82495,-0.907685 2.85175,-0.906981 2.87863,-0.905795 2.90559,-0.903924 2.93262,-0.901118 2.95966,-0.897086 2.9866,-0.89151 3.01327,-0.884074 3.03941,-0.87452 " stroke-width="0.0050000000000000001" style="stroke:pink;fill:none"/><rect x="2.6867261889578042" y="-0.9133452377915604" width="0.01" height="0.01" style="fill:red;stroke-width:0"/><rect x="3.0344058834518126" y="-0.87952022006678299" width="0.01" height="0.01" style="fill:red;stroke-width:0"/></g><g><polyline points="3.03941,-0.87452 3.06464,-0.862794 3.08876,-0.849196 3.11175,-0.834088 3.13372,-0.81782 3.15482,-0.800693 3.17521,-0.78295 3.19505,-0.764781 3.2145,-0.74633 3.23367,-0.727702 3.25266,-0.708973 3.27154,-0.690192 3.29037,-0.671393 3.30917,-0.652591 " stroke-width="0.0050000000000000001" style="stroke:pink;fill:none"/><rect x="3.0344058834518126" y="-0.87952022006678299" width="0.01" height="0.01" style="fill:red;stroke-width:0"/><rect x="3.3041704525163387" y="-0.65759144981614748" width="0.01" height="0.01" style="fill:red;stroke-width:0"/></g><g><polyline points="3.30917,-0.652591 3.32773,-0.63403 3.34629,-0.615468 3.36486,-0.596907 3.38342,-0.578345 " stroke-width="0.014999999999999999" style="stroke:pink;fill:none"/><rect x="3.3041704525163387" y="-0.65759144981614748" width="0.01" height="0.01" style="fill:red;stroke-width:0"/><rect x="3.3784166645409259" y="-0.58334523779156" width="0.01" height="0.01" style="fill:red;stroke-width:0"/></g><g><polyline points="4.41345,-0.015 4.3872,-0.015 4.36095,-0.015 4.3347,-0.015 4.30845,-0.015 " stroke-width="0.014999999999999999" style="stroke:pink;fill:none"/><rect x="4.4084523779156077" y="-0.019999999999999459" width="0.01" height="0.01" style="fill:red;stroke-width:0"/><rect x="4.3034523779156073" y="-0.019999999999999473" width="0.01" height="0.01" style="fill:red;stroke-width:0"/></g><g><polyline points="4.30845,-0.015 4.28186,-0.015002 4.25526,-0.0150215 4.22862,-0.0150938 4.20195,-0.0152776 4.17523,-0.0156607 4.14843,-0.0163647 4.12155,-0.0175501 4.09458,-0.0194209 4.06756,-0.0222268 4.04052,-0.0262588 4.01358,-0.0318354 3.98691,-0.0392708 3.96077,-0.048825 " stroke-width="0.0050000000000000001" style="stroke:pink;fill:none"/><rect x="4.3034523779156073" y="-0.019999999999999473" width="0.01" height="0.01" style="fill:red;stroke-width:0"/><rect x="3.9557726834215994" y="-0.053825017724776873" width="0.01" height="0.01" style="fill:red;stroke-width:0"/></g><g><polyline points="4.62,-0.015 4.59418,-0.015 4.56836,-0.015 4.54254,-0.015 4.51673,-0.015 4.49091,-0.015 4.46509,-0.015 4.43927,-0.015 4.41345,-0.015 " stroke-width="0.0050000000000000001" style="stroke:pink;fill:none"/><rect x="4.6150000000000002" y="-0.019999999999999435" width="0.01" height="0.01" style="fill:red;stroke-width:0"/><rect x="4.4084523779156077" y="-0.019999999999999459" width="0.01" height="0.01" style="fill:red;stroke-width:0"/></g><g><polyline points="3.96,-0.015 3.9868,-0.015 4.01361,-0.015 4.04041,-0.015 4.06722,-0.015 4.09402,-0.015 4.12082,-0.015 4.14763,-0.015 4.17443,-0.015 4.20124,-0.015 4.22804,-0.015 4.25484,-0.015 4.28165,-0.015 4.30845,-0.015 " stroke-width="0.0050000000000000001" style="stroke:pink;fill:none"/><rect x="3.9550000000000005" y="-0.019999999999999515" width="0.01" height="0.01" style="fill:red;stroke-width:0"/><rect x="4.3034523779156073" y="-0.019999999999999473" width="0.01" height="0.01" style="fill:red;stroke-width:0"/></g><g><polyline points="3.96077,-0.048825 3.93554,-0.0605507 3.91142,-0.0741494 3.88843,-0.0892569 3.86646,-0.105525 3.84536,-0.122653 3.82497,-0.140395 3.80513,-0.158564 3.78568,-0.177015 3.76651,-0.195643 3.74752,-0.214373 3.72864,-0.233153 3.70981,-0.251952 3.69101,-0.270754 " stroke-width="0.0050000000000000001" style="stroke:pink;fill:none"/><rect x="3.9557726834215994" y="-0.053825017724776873" width="0.01" height="0.01" style="fill:red;stroke-width:0"/><rect x="3.6860081143570733" y="-0.27575378797541206" width="0.01" height="0.01" style="fill:red;stroke-width:0"/></g><g><polyline points="3.69101,-0.270754 3.67245,-0.289315 3.65389,-0.307877 3.63532,-0.326438 3.61676,-0.345 " stroke-width="0.0050000000000000001" style="stroke:pink;fill:none"/><rect x="3.6860081143570733" y="-0.27575378797541206" width="0.01" height="0.01" style="fill:red;stroke-width:0"/><rect x="3.6117619023324861" y="-0.34999999999999953" width="0.01" height="0.01" style="fill:red;stroke-width:0"/></g><g><polyline points="3.30917,-0.652591 3.29149,-0.670269 3.27382,-0.687947 3.25614,-0.705624 3.23846,-0.723302 3.22078,-0.74098 3.2031,-0.758657 3.18543,-0.776335 3.16775,-0.794013 3.15007,-0.81169 " stroke-width="0.0050000000000000001" style="stroke:pink;fill:none"/><rect x="3.3041704525163387" y="-0.65759144981614748" width="0.01" height="0.01" style="fill:red;stroke-width:0"/><rect x="3.1450714267493645" y="-0.81669047558312091" width="0.01" height="0.01" style="fill:red;stroke-width:0"/></g><g><polyline points="3.38342,-0.578345 3.40137,-0.560396 3.41932,-0.542446 3.43727,-0.524496 3.45522,-0.506547 3.47316,-0.488597 3.49111,-0.470647 3.50906,-0.452698 3.52701,-0.434748 3.54496,-0.416799 3.56291,-0.398849 3.58086,-0.380899 3.59881,-0.36295 3.61676,-0.345 " stroke-width="0.0050000000000000001" style="stroke:pink;fill:none"/><rect x="3.3784166645409259" y="-0.58334523779156" width="0.01" height="0.01" style="fill:red;stroke-width:0"/><rect x="3.6117619023324861" y="-0.34999999999999953" width="0.01" height="0.01" style="fill:red;stroke-width:0"/></g></g><polyline points="-0.626175,0.43768 -0.635259,0.412913 -0.642276,0.387484 -0.647178,0.361564 -0.649932,0.335328 -0.65052,0.308955 -0.648938,0.282623 -0.645196,0.25651 -0.63932,0.230793 -0.63135,0.205646 -0.621339,0.18124 -0.609355,0.157739 -0.595479,0.135304 -0.579806,0.114085 -0.562441,0.0942264 -0.543503,0.0758629 -0.523118,0.0591187 -0.501426,0.0441072 -0.478574,0.0309299 -0.454715,0.0196762 -0.430056,0.0104148 -0.404892,0.00307618 -0.379442,-0.00255061 -0.353875,-0.00672511 -0.328296,-0.00972004 -0.302761,-0.0117915 -0.277298,-0.0131646 -0.25191,-0.0140288 -0.226592,-0.0145374 -0.201331,-0.0148105 -0.176115,-0.0149388 -0.15093,-0.0149872 -0.125765,-0.0149991 -0.10061,-0.015 -0.0754575,-0.015 -0.050305,-0.015 -0.0251525,-0.015 -1.45578e-15,-0.015 " stroke="blue" style="stroke-opacity:0.5;stroke-width:0.010;fill:none;marker-end:url(#secArrow-blue)"/><polyline points="1.92673,-0.908345 1.95211,-0.908345 1.9775,-0.908345 2.00288,-0.908345 2.02826,-0.908345 2.05365,-0.908345 2.07903,-0.908345 2.10442,-0.908345 2.1298,-0.908345 2.15519,-0.908345 2.18057,-0.908345 2.20596,-0.908345 2.23134,-0.908345 2.25673,-0.908345 2.28211,-0.908345 2.3075,-0.908345 2.33288,-0.908345 2.35826,-0.908345 2.38365,-0.908345 2.40903,-0.908345 2.43442,-0.908345 2.4598,-0.908345 2.48519,-0.908345 2.51057,-0.908345 2.53596,-0.908345 2.56134,-0.908345 2.58673,-0.908345 " stroke="seagreen" style="stroke-opacity:0.5;stroke-width:0.010;fill:none;marker-end:url(#secArrow-seagreen)"/><polyline points="3.96,-0.015 3.98538,-0.015 4.01077,-0.015 4.03615,-0.015 4.06154,-0.015 4.08692,-0.015 4.11231,-0.015 4.13769,-0.015 4.16308,-0.015 4.18846,-0.015 4.21385,-0.015 4.23923,-0.015 4.26462,-0.015 4.29,-0.015 4.31538,-0.015 4.34077,-0.015 4.36615,-0.015 4.39154,-0.015 4.41692,-0.015 4.44231,-0.015 4.46769,-0.015 4.49308,-0.015 4.51846,-0.015 4.54385,-0.015 4.56923,-0.015 4.59462,-0.015 4.62,-0.015 " stroke="orange" style="stroke-opacity:0.5;stroke-width:0.010;fill:none;marker-end:url(#secArrow-orange)"/><polyline points="4.318,0.645 4.2929,0.645 4.2678,0.645 4.2427,0.645 4.2176,0.645 4.1925,0.645 4.1674,0.645 4.1423,0.645 4.1172,0.645 4.0921,0.645 4.067,0.645 4.0419,0.645 4.0168,0.645 3.9917,0.645 3.9666,0.645 3.9415,0.645 3.9164,0.645 3.8913,0.645 3.8662,0.645 3.8411,0.645 3.816,0.645 3.7909,0.645 3.7658,0.645 3.7407,0.645 3.7156,0.645 3.6905,0.645 3.6654,0.645 3.6403,0.645 3.6152,0.645 3.5901,0.645 3.565,0.645 3.5399,0.645 3.5148,0.645 3.4897,0.645 3.4646,0.645 3.4395,0.645 3.4144,0.645 3.3893,0.645 3.3642,0.645 3.3391,0.645 3.314,0.645 3.2889,0.645 3.2638,0.645 3.2387,0.645 3.2136,0.645 3.1885,0.645 3.1634,0.645 3.1383,0.645 3.1132,0.645 3.0881,0.645 3.063,0.645 3.0379,0.645 3.0128,0.645 2.9877,0.645 2.9626,0.645 2.9375,0.645 2.9124,0.645 2.8873,0.645 2.8622,0.645 2.8371,0.645 2.812,0.645 2.7869,0.645 2.7618,0.645 2.7367,0.645 2.7116,0.645 2.6865,0.645 2.6614,0.645 2.6363,0.645 2.6112,0.645 2.5861,0.645 2.561,0.645 2.5359,0.645 2.5108,0.645 2.4857,0.645 2.4606,0.645 2.4355,0.645 2.4104,0.645 2.3853,0.645 2.3602,0.645 2.3351,0.645 2.31,0.645 2.2849,0.645 2.2598,0.645 2.2347,0.645 2.2096,0.645 2.1845,0.645 2.1594,0.645 2.1343,0.645 2.1092,0.645 2.0841,0.645 2.059,0.645 2.0339,0.645 2.0088,0.645 1.9837,0.645 1.9586,0.645 1.9335,0.645 1.9084,0.645 1.8833,0.645 1.8582,0.645 1.8331,0.645 1.808,0.645 1.7829,0.645 1.7578,0.645 1.7327,0.645 1.7076,0.645 1.6825,0.645 1.6574,0.645 1.6323,0.645 1.6072,0.645 1.5821,0.645 1.557,0.645 1.5319,0.645 1.5068,0.645 1.4817,0.645 1.4566,0.645 1.4315,0.645 1.4064,0.645 1.3813,0.645 1.3562,0.645 1.3311,0.645 1.306,0.645 1.2809,0.645 1.2558,0.645 1.2307,0.645 1.2056,0.645 1.1805,0.645 1.1554,0.645 1.1303,0.645 1.1052,0.645 1.0801,0.645 1.055,0.645 1.0299,0.645 1.0048,0.645 0.9797,0.645 0.9546,0.645 0.9295,0.645 0.9044,0.645 0.8793,0.645 0.8542,0.645 0.8291,0.645 0.804,0.645 0.7789,0.645 0.7538,0.645 0.7287,0.645 0.7036,0.645 0.6785,0.645 0.6534,0.645 0.6283,0.645 0.6032,0.645 0.5781,0.645 0.553,0.645 0.5279,0.645 0.5028,0.645 0.4777,0.645 0.4526,0.645 0.4275,0.645 0.4024,0.645 0.3773,0.645 0.3522,0.645 0.3271,0.645 0.302,0.645 " stroke="blue" style="stroke-opacity:0.5;stroke-width:0.010;fill:none;marker-end:url(#secArrow-blue)"/><polyline points="5.28,0.645 5.25443,0.645 5.22886,0.645 5.20329,0.645 5.17771,0.645 5.15214,0.645 5.12657,0.645 5.101,0.645 5.07543,0.645 5.04986,0.645 5.02429,0.645 4.99871,0.645 4.97314,0.645 4.94757,0.645 4.922,0.645 " stroke="seagreen" style="stroke-opacity:0.5;stroke-width:0.010;fill:none;marker-end:url(#secArrow-seagreen)"/><polyline points="4.62,-0.015 4.64557,-0.015 4.67114,-0.015 4.69671,-0.015 4.72229,-0.015 4.74786,-0.015 4.77343,-0.015 4.799,-0.015 4.82457,-0.015 4.85014,-0.015 4.87571,-0.015 4.90129,-0.015 4.92686,-0.015 4.95243,-0.015 4.978,-0.015 " stroke="orange" style="stroke-opacity:0.5;stroke-width:0.010;fill:none;marker-end:url(#secArrow-orange)"/><polyline points="1.98,-0.015 2.00557,-0.015 2.03114,-0.015 2.05671,-0.015 2.08229,-0.015 2.10786,-0.015 2.13343,-0.015 2.159,-0.015 2.18457,-0.015 2.21014,-0.015 2.23571,-0.015 2.26129,-0.015 2.28686,-0.015 2.31243,-0.015 2.338,-0.015 " stroke="blue" style="stroke-opacity:0.5;stroke-width:0.010;fill:none;marker-end:url(#secArrow-blue)"/><g><polyline points="0.7046,-0.006 0.7001,-0.006 0.7001,-0.024 0.7046,-0.024 " stroke="lightgrey" fill="none" style="stroke-width:0.004"/></g><g><polyline points="1.2754,-0.024 1.2799,-0.024 1.2799,-0.006 1.2754,-0.006 " stroke="lightgrey" fill="none" style="stroke-width:0.004"/></g><g><polyline points="1.3646,-0.006 1.3601,-0.006 1.3601,-0.024 1.3646,-0.024 " stroke="lightgrey" fill="none" style="stroke-width:0.004"/></g><g><polyline points="1.9354,-0.024 1.9399,-0.024 1.9399,-0.006 1.9354,-0.006 " stroke="lightgrey" fill="none" style="stroke-width:0.004"/></g><g><polyline points="2.0246,-0.006 2.0201,-0.006 2.0201,-0.024 2.0246,-0.024 " stroke="lightgrey" fill="none" style="stroke-width:0.004"/></g><g><polyline points="2.5954,-0.024 2.5999,-0.024 2.5999,-0.006 2.5954,-0.006 " stroke="lightgrey" fill="none" style="stroke-width:0.004"/></g><g><polyline points="2.6846,-0.006 2.6801,-0.006 2.6801,-0.024 2.6846,-0.024 " stroke="lightgrey" fill="none" style="stroke-width:0.004"/></g><g><polyline points="3.2554,-0.024 3.2599,-0.024 3.2599,-0.006 3.2554,-0.006 " stroke="lightgrey" fill="none" style="stroke-width:0.004"/></g><g><polyline points="3.3446,-0.006 3.3401,-0.006 3.3401,-0.024 3.3446,-0.024 " stroke="lightgrey" fill="none" style="stroke-width:0.004"/></g><g><polyline points="3.9154,-0.024 3.9199,-0.024 3.9199,-0.006 3.9154,-0.006 " stroke="lightgrey" fill="none" style="stroke-width:0.004"/></g><g><polyline points="3.93286,-0.024 3.93736,-0.024 3.93736,-0.006 3.93286,-0.006 " stroke="purple" fill="none" style="stroke-width:0.004"/></g><g><polyline points="4.6646,-0.006 4.6601,-0.006 4.6601,-0.024 4.6646,-0.024 " stroke="lightgrey" fill="none" style="stroke-width:0.004"/></g><g><polyline points="5.2354,-0.024 5.2399,-0.024 5.2399,-0.006 5.2354,-0.006 " stroke="lightgrey" fill="none" style="stroke-width:0.004"/></g><g><polyline points="5.3246,-0.006 5.3201,-0.006 5.3201,-0.024 5.3246,-0.024 " stroke="lightgrey" fill="none" style="stroke-width:0.004"/></g><g><polyline points="5.69111,-0.00463454 5.69545,-0.00343068 5.69063,0.0139132 5.68629,0.0127094 " stroke="lightgrey" fill="none" style="stroke-width:0.004"/></g><g><polyline points="5.76977,0.0474682 5.76588,0.045217 5.77488,0.0296315 5.77878,0.0318827 " stroke="lightgrey" fill="none" style="stroke-width:0.004"/></g><g><polyline points="5.89312,0.146221 5.89537,0.150118 5.87978,0.159123 5.87753,0.155227 " stroke="lightgrey" fill="none" style="stroke-width:0.004"/></g><g><polyline points="5.91215,0.238803 5.91099,0.234456 5.92838,0.229803 5.92954,0.23415 " stroke="lightgrey" fill="none" style="stroke-width:0.004"/></g><g><polyline points="5.92954,0.39585 5.92838,0.400197 5.91099,0.395544 5.91215,0.391197 " stroke="lightgrey" fill="none" style="stroke-width:0.004"/></g><g><polyline points="5.87753,0.474773 5.87978,0.470877 5.89537,0.479882 5.89312,0.483779 " stroke="lightgrey" fill="none" style="stroke-width:0.004"/></g><g><polyline points="5.77878,0.598117 5.77488,0.600369 5.76588,0.584783 5.76977,0.582532 " stroke="lightgrey" fill="none" style="stroke-width:0.004"/></g><g><polyline points="5.68629,0.617291 5.69063,0.616087 5.69545,0.633431 5.69111,0.634635 " stroke="lightgrey" fill="none" style="stroke-width:0.004"/></g><g><polyline points="5.3246,0.654 5.3201,0.654 5.3201,0.636 5.3246,0.636 " stroke="lightgrey" fill="none" style="stroke-width:0.004"/></g><g><polyline points="5.2354,0.636 5.2399,0.636 5.2399,0.654 5.2354,0.654 " stroke="lightgrey" fill="none" style="stroke-width:0.004"/></g><g><polyline points="4.6646,0.654 4.6601,0.654 4.6601,0.636 4.6646,0.636 " stroke="lightgrey" fill="none" style="stroke-width:0.004"/></g><g><polyline points="4.5754,0.636 4.5799,0.636 4.5799,0.654 4.5754,0.654 " stroke="lightgrey" fill="none" style="stroke-width:0.004"/></g><g><polyline points="4.0046,0.654 4.0001,0.654 4.0001,0.636 4.0046,0.636 " stroke="lightgrey" fill="none" style="stroke-width:0.004"/></g><g><polyline points="3.9154,0.636 3.9199,0.636 3.9199,0.654 3.9154,0.654 " stroke="lightgrey" fill="none" style="stroke-width:0.004"/></g><g><polyline points="3.3446,0.654 3.3401,0.654 3.3401,0.636 3.3446,0.636 " stroke="lightgrey" fill="none" style="stroke-width:0.004"/></g><g><polyline points="3.2554,0.636 3.2599,0.636 3.2599,0.654 3.2554,0.654 " stroke="lightgrey" fill="none" style="stroke-width:0.004"/></g><g><polyline points="2.6846,0.654 2.6801,0.654 2.6801,0.636 2.6846,0.636 " stroke="lightgrey" fill="none" style="stroke-width:0.004"/></g><g><polyline points="2.5954,0.636 2.5999,0.636 2.5999,0.654 2.5954,0.654 " stroke="lightgrey" fill="none" style="stroke-width:0.004"/></g><g><polyline points="2.0246,0.654 2.0201,0.654 2.0201,0.636 2.0246,0.636 " stroke="lightgrey" fill="none" style="stroke-width:0.004"/></g><g><polyline points="1.9354,0.636 1.9399,0.636 1.9399,0.654 1.9354,0.654 " stroke="lightgrey" fill="none" style="stroke-width:0.004"/></g><g><polyline points="1.3646,0.654 1.3601,0.654 1.3601,0.636 1.3646,0.636 " stroke="lightgrey" fill="none" style="stroke-width:0.004"/></g><g><polyline points="1.2754,0.636 1.2799,0.636 1.2799,0.654 1.2754,0.654 " stroke="lightgrey" fill="none" style="stroke-width:0.004"/></g><g><polyline points="0.7046,0.654 0.7001,0.654 0.7001,0.636 0.7046,0.636 " stroke="lightgrey" fill="none" style="stroke-width:0.004"/></g><g><polyline points="0.6154,0.636 0.6199,0.636 0.6199,0.654 0.6154,0.654 " stroke="lightgrey" fill="none" style="stroke-width:0.004"/></g><g><polyline points="0.0446,0.654 0.0401,0.654 0.0401,0.636 0.0446,0.636 " stroke="lightgrey" fill="none" style="stroke-width:0.004"/></g><g><polyline points="-0.0446,0.636 -0.0401,0.636 -0.0401,0.654 -0.0446,0.654 " stroke="lightgrey" fill="none" style="stroke-width:0.004"/></g><g><polyline points="-0.411109,0.634635 -0.415445,0.633431 -0.41063,0.616087 -0.406294,0.617291 " stroke="lightgrey" fill="none" style="stroke-width:0.004"/></g><g><polyline points="-0.489773,0.582532 -0.485877,0.584783 -0.494882,0.600369 -0.498779,0.598117 " stroke="lightgrey" fill="none" style="stroke-width:0.004"/></g><g><polyline points="-0.613117,0.483779 -0.615369,0.479882 -0.599783,0.470877 -0.597532,0.474773 " stroke="lightgrey" fill="none" style="stroke-width:0.004"/></g><g><polyline points="-0.63215,0.391197 -0.630987,0.395544 -0.648375,0.400197 -0.649539,0.39585 " stroke="lightgrey" fill="none" style="stroke-width:0.004"/></g><g><polyline points="-0.649539,0.23415 -0.648375,0.229803 -0.630987,0.234456 -0.63215,0.238803 " stroke="lightgrey" fill="none" style="stroke-width:0.004"/></g><g><polyline points="-0.597532,0.155227 -0.599783,0.159123 -0.615369,0.150118 -0.613117,0.146221 " stroke="lightgrey" fill="none" style="stroke-width:0.004"/></g><g><polyline points="-0.498779,0.0318827 -0.494882,0.0296315 -0.485877,0.045217 -0.489773,0.0474682 " stroke="lightgrey" fill="none" style="stroke-width:0.004"/></g><g><polyline points="-0.406294,0.0127094 -0.41063,0.0139132 -0.415445,-0.00343068 -0.411109,-0.00463454 " stroke="lightgrey" fill="none" style="stroke-width:0.004"/></g><g><polyline points="-0.0446,-0.024 -0.0401,-0.024 -0.0401,-0.006 -0.0446,-0.006 " stroke="lightgrey" fill="none" style="stroke-width:0.004"/></g><g><polyline points="0.85879,-0.319827 0.861972,-0.323009 0.874699,-0.310281 0.871517,-0.307099 " stroke="lightgrey" fill="none" style="stroke-width:0.004"/></g><g><polyline points="0.598663,-0.0616313 0.594746,-0.0594166 0.585887,-0.0750856 0.589804,-0.0773003 " stroke="lightgrey" fill="none" style="stroke-width:0.004"/></g><g><polyline points="0.584966,-0.0540439 0.580959,-0.0519959 0.572767,-0.0680237 0.576774,-0.0700717 " stroke="purple" fill="none" style="stroke-width:0.004"/></g><g><polyline points="0.506294,-0.0427094 0.51063,-0.0439132 0.515445,-0.0265693 0.511109,-0.0253655 " stroke="lightgrey" fill="none" style="stroke-width:0.004"/></g><g><polyline points="0.340033,-0.00669037 0.335534,-0.00660846 0.335206,-0.0246055 0.339705,-0.0246874 " stroke="lightgrey" fill="none" style="stroke-width:0.004"/></g><g><polyline points="0.6154,-0.024 0.6199,-0.024 0.6199,-0.006 0.6154,-0.006 " stroke="lightgrey" fill="none" style="stroke-width:0.004"/></g><g><polyline points="0.580594,-0.006 0.576094,-0.006 0.576094,-0.024 0.580594,-0.024 " stroke="purple" fill="none" style="stroke-width:0.004"/></g><g><polyline points="0.3396,-0.006 0.3351,-0.006 0.3351,-0.024 0.3396,-0.024 " stroke="lightgrey" fill="none" style="stroke-width:0.004"/></g><g><polyline points="0.0446,-0.006 0.0401,-0.006 0.0401,-0.024 0.0446,-0.024 " stroke="lightgrey" fill="none" style="stroke-width:0.004"/></g><g><polyline points="0.0554,-0.024 0.0599,-0.024 0.0599,-0.006 0.0554,-0.006 " stroke="lightgrey" fill="none" style="stroke-width:0.004"/></g><g><polyline points="1.30638,-0.740992 1.30314,-0.737869 1.29065,-0.750826 1.29389,-0.75395 " stroke="lightgrey" fill="none" style="stroke-width:0.004"/></g><g><polyline points="1.39826,-0.820569 1.39465,-0.817879 1.38389,-0.832307 1.3875,-0.834997 " stroke="purple" fill="none" style="stroke-width:0.004"/></g><g><polyline points="1.42806,-0.861714 1.43198,-0.863929 1.44084,-0.84826 1.43692,-0.846045 " stroke="lightgrey" fill="none" style="stroke-width:0.004"/></g><g><polyline points="0.934591,-0.370173 0.931409,-0.366991 0.918681,-0.379719 0.921863,-0.382901 " stroke="lightgrey" fill="none" style="stroke-width:0.004"/></g><g><polyline points="1.09213,-0.553172 1.09532,-0.556354 1.10804,-0.543626 1.10486,-0.540444 " stroke="lightgrey" fill="none" style="stroke-width:0.004"/></g><g><polyline points="1.30582,-0.741404 1.30264,-0.738222 1.28991,-0.75095 1.29309,-0.754132 " stroke="lightgrey" fill="none" style="stroke-width:0.004"/></g><g><polyline points="1.52043,-0.880636 1.5161,-0.879432 1.51128,-0.896776 1.51562,-0.89798 " stroke="lightgrey" fill="none" style="stroke-width:0.004"/></g><g><polyline points="1.88213,-0.917345 1.88663,-0.917345 1.88663,-0.899345 1.88213,-0.899345 " stroke="lightgrey" fill="none" style="stroke-width:0.004"/></g><g><polyline points="1.97133,-0.899345 1.96683,-0.899345 1.96683,-0.917345 1.97133,-0.917345 " stroke="lightgrey" fill="none" style="stroke-width:0.004"/></g><g><polyline points="2.54213,-0.917345 2.54663,-0.917345 2.54663,-0.899345 2.54213,-0.899345 " stroke="lightgrey" fill="none" style="stroke-width:0.004"/></g><g><polyline points="2.63133,-0.899345 2.62683,-0.899345 2.62683,-0.917345 2.63133,-0.917345 " stroke="lightgrey" fill="none" style="stroke-width:0.004"/></g><g><polyline points="2.99784,-0.89798 3.00217,-0.896776 2.99736,-0.879432 2.99302,-0.880636 " stroke="lightgrey" fill="none" style="stroke-width:0.004"/></g><g><polyline points="3.07653,-0.846045 3.07261,-0.84826 3.08147,-0.863929 3.08539,-0.861714 " stroke="lightgrey" fill="none" style="stroke-width:0.004"/></g><g><polyline points="3.12596,-0.834997 3.12956,-0.832307 3.1188,-0.817879 3.11519,-0.820569 " stroke="purple" fill="none" style="stroke-width:0.004"/></g><g><polyline points="3.21956,-0.75395 3.2228,-0.750826 3.21031,-0.737869 3.20707,-0.740992 " stroke="lightgrey" fill="none" style="stroke-width:0.004"/></g><g><polyline points="4.17375,-0.0246874 4.17825,-0.0246055 4.17792,-0.00660846 4.17342,-0.00669037 " stroke="lightgrey" fill="none" style="stroke-width:0.004"/></g><g><polyline points="4.00234,-0.0253655 3.99801,-0.0265693 4.00282,-0.0439132 4.00716,-0.0427094 " stroke="lightgrey" fill="none" style="stroke-width:0.004"/></g><g><polyline points="4.5754,-0.024 4.5799,-0.024 4.5799,-0.006 4.5754,-0.006 " stroke="lightgrey" fill="none" style="stroke-width:0.004"/></g><g><polyline points="4.45805,-0.006 4.45355,-0.006 4.45355,-0.024 4.45805,-0.024 " stroke="lightgrey" fill="none" style="stroke-width:0.004"/></g><g><polyline points="4.0046,-0.006 4.0001,-0.006 4.0001,-0.024 4.0046,-0.024 " stroke="lightgrey" fill="none" style="stroke-width:0.004"/></g><g><polyline points="4.17385,-0.024 4.17835,-0.024 4.17835,-0.006 4.17385,-0.006 " stroke="lightgrey" fill="none" style="stroke-width:0.004"/></g><g><polyline points="3.93668,-0.0700717 3.94069,-0.0680237 3.93249,-0.0519959 3.92849,-0.0540439 " stroke="purple" fill="none" style="stroke-width:0.004"/></g><g><polyline points="3.92365,-0.0773003 3.92757,-0.0750856 3.91871,-0.0594166 3.91479,-0.0616313 " stroke="lightgrey" fill="none" style="stroke-width:0.004"/></g><g><polyline points="3.64193,-0.307099 3.63875,-0.310281 3.65148,-0.323009 3.65466,-0.319827 " stroke="lightgrey" fill="none" style="stroke-width:0.004"/></g><g><polyline points="3.22036,-0.754132 3.22354,-0.75095 3.21081,-0.738222 3.20763,-0.741404 " stroke="lightgrey" fill="none" style="stroke-width:0.004"/></g><g><polyline points="3.40859,-0.540444 3.40541,-0.543626 3.41814,-0.556354 3.42132,-0.553172 " stroke="lightgrey" fill="none" style="stroke-width:0.004"/></g><g><polyline points="3.59159,-0.382901 3.59477,-0.379719 3.58204,-0.366991 3.57886,-0.370173 " stroke="lightgrey" fill="none" style="stroke-width:0.004"/></g></g></svg>