<svg xmlns="http://www.w3.org/2000/svg" id="Layer_1" width="1000" height="1000">
   <path d="M100 150 A 45 45 0 0 0 100 300" 
        style="fill: transparent;
            fill-opacity: 1;
            stroke: black;
            stroke-width: 5" />
	<path d="M100 150 L600 150 Z" stroke="black" stroke-width="5" fill="none"/>
	<path d="M100 300 L600 300 Z" stroke="black" stroke-width="5" fill="none"/>
	
	<path d="M600 300 A 45 45 0 0 0 600 150" 
        style="fill: transparent;
            fill-opacity: 1;
            stroke: black;
            stroke-width: 5" />
<path d="M 100 130  C 180 130 140 50 200 50 L 320 50 C 360 50 330 130 420 130" style="fill: transparent;
            fill-opacity: 1;
            stroke: black;
            stroke-width: 5" />
<rect id="nalewanieA" x="225" y="140" width="50" height="50" style="fill:rgb(0,255,0);stroke-width:3;stroke:rgb(0,0,0)" />
<rect id="nalewanieB" x="225" y="10" width="50" height="50" style="fill:rgb(0,255,0);stroke-width:3;stroke:rgb(0,0,0)" />
<rect id="wejscie" x="150" y="290" width="50" height="50" style="fill:rgb(0,255,0);stroke-width:3;stroke:rgb(0,0,0)" />
<rect id="wyjscie" x="450" y="290" width="50" height="50" style="fill:rgb(0,255,0);stroke-width:3;stroke:rgb(0,0,0)" />
<rect id="zakrecanie" x="550" y="110" width="50" height="50" style="fill:rgb(0,255,0);stroke-width:3;stroke:rgb(0,0,0)" />
</svg>